<svg width="26" height="26" fill="none" xmlns="http://www.w3.org/2000/svg"><path d="m11.402 17.93 7.665-7.665-1.246-1.22-6.419 6.42-3.25-3.25-1.219 1.218 4.47 4.496ZM13 23.832c-1.535 0-2.961-.275-4.28-.826a10.571 10.571 0 0 1-3.439-2.288 10.573 10.573 0 0 1-2.288-3.44c-.551-1.318-.826-2.744-.826-4.279 0-1.517.275-2.934.826-4.252a10.573 10.573 0 0 1 2.288-3.44 10.754 10.754 0 0 1 3.44-2.302c1.318-.56 2.744-.84 4.279-.84 1.517 0 2.934.28 4.252.84a10.755 10.755 0 0 1 3.44 2.302 10.754 10.754 0 0 1 2.302 3.44c.56 1.318.84 2.735.84 4.252 0 1.535-.28 2.961-.84 4.28a10.753 10.753 0 0 1-2.302 3.439 10.572 10.572 0 0 1-3.44 2.288c-1.318.55-2.735.826-4.252.826Zm0-1.625c2.618 0 4.807-.88 6.568-2.64 1.76-1.76 2.64-3.95 2.64-6.568 0-2.618-.88-4.807-2.64-6.568-1.76-1.76-3.95-2.64-6.568-2.64-2.618 0-4.807.88-6.568 2.64-1.76 1.76-2.64 3.95-2.64 6.568 0 2.618.88 4.807 2.64 6.568 1.76 1.76 3.95 2.64 6.568 2.64Z" fill="#34A853"/></svg>