<svg width="60" height="60" fill="none" xmlns="http://www.w3.org/2000/svg"><path d="M27.313 51.188v-5.126c-1.459 0-2.688-.541-3.688-1.624-1-1.084-1.5-2.355-1.5-3.813v-2.75L9.312 25.062a17.563 17.563 0 0 0-.437 2.47A24.186 24.186 0 0 0 8.75 30c0 5.417 1.76 10.146 5.281 14.188 3.521 4.041 7.948 6.374 13.281 7Zm18.375-6.75c1.833-2 3.218-4.24 4.156-6.72A21.647 21.647 0 0 0 51.25 30c0-4.417-1.208-8.427-3.625-12.031-2.417-3.604-5.646-6.24-9.688-7.907v1.126c0 1.458-.5 2.729-1.5 3.812-1 1.083-2.229 1.625-3.687 1.625h-5.438v5.438c0 .708-.28 1.291-.843 1.75a2.939 2.939 0 0 1-1.907.687h-5.187V30H35.5c.708 0 1.292.27 1.75.813.458.541.688 1.166.688 1.875v7.937h2.687c1.208 0 2.27.354 3.188 1.063a5.286 5.286 0 0 1 1.874 2.75ZM30 55c-3.458 0-6.708-.656-9.75-1.969-3.042-1.312-5.688-3.093-7.938-5.343s-4.03-4.896-5.343-7.938C5.656 36.708 5 33.458 5 30s.656-6.708 1.969-9.75c1.312-3.042 3.093-5.688 5.343-7.938s4.896-4.03 7.938-5.343C23.292 5.656 26.542 5 30 5s6.708.656 9.75 1.969c3.042 1.312 5.688 3.093 7.938 5.343s4.03 4.896 5.343 7.938C54.344 23.292 55 26.542 55 30s-.656 6.708-1.969 9.75c-1.312 3.042-3.093 5.688-5.343 7.938s-4.896 4.03-7.938 5.343C36.708 54.344 33.458 55 30 55Z" fill="#041E49"/></svg>