<svg width="222" height="56" fill="none" xmlns="http://www.w3.org/2000/svg"><path d="M67.06 27.482c0-3.445.612-6.047 1.837-7.885 1.224-1.837 3.062-2.756 5.588-2.756 1.378 0 2.526.23 3.521.766.919.536 1.76 1.225 2.297 2.143.612.919.995 2.067 1.301 3.369.23 1.301.383 2.756.383 4.363 0 3.445-.612 6.048-1.837 7.885-1.225 1.837-3.062 2.756-5.665 2.756-1.378 0-2.526-.23-3.445-.766a6.821 6.821 0 0 1-2.297-2.143c-.612-.919-.995-2.067-1.3-3.368a24.342 24.342 0 0 1-.384-4.364Zm2.525 0c0 1.148.077 2.22.23 3.215.153.995.383 1.914.766 2.68.382.765.842 1.377 1.454 1.837.613.46 1.378.689 2.373.689 1.684 0 2.91-.69 3.751-2.067.766-1.378 1.149-3.521 1.149-6.43 0-1.149-.077-2.22-.23-3.216-.153-.995-.383-1.913-.766-2.679-.382-.765-.842-1.378-1.53-1.837-.613-.46-1.455-.69-2.374-.69-1.684 0-2.909.69-3.674 2.068-.766 1.378-1.148 3.598-1.148 6.43ZM86.197 28.248v-.69c0-.305 0-.612-.076-.918 0-.306-.077-.612-.077-.919 0-.306-.076-.535-.076-.765h-1.99v-1.914h3.903l.307 2.067h.153a7.32 7.32 0 0 1 1.99-1.76c.842-.46 1.837-.69 2.986-.69 2.143 0 3.674.613 4.746 1.761 1.072 1.148 1.607 3.062 1.607 5.665 0 1.225-.153 2.373-.535 3.368a8.247 8.247 0 0 1-1.532 2.526 6.826 6.826 0 0 1-2.45 1.608c-.918.383-1.99.536-3.138.536-.383 0-.765 0-1.072-.077-.306 0-.612-.076-.918-.153-.23-.076-.536-.076-.766-.23-.23-.076-.535-.152-.842-.306v5.435h-2.296V28.248h.076Zm6.737-3.369c-.613 0-1.148.077-1.684.307-.536.23-.996.535-1.378.842-.383.383-.766.765-.995 1.148-.23.46-.383.842-.46 1.301v6.737c.46.306.919.536 1.455.689.536.153 1.225.23 2.143.23 1.608 0 2.833-.536 3.751-1.532.919-.995 1.455-2.526 1.455-4.516 0-1.684-.306-2.986-.996-3.904-.612-.842-1.76-1.302-3.291-1.302ZM116.129 35.98c-.383.306-.766.612-1.225.918a5.102 5.102 0 0 1-1.607.689 6.628 6.628 0 0 1-1.761.46c-.613.076-1.225.152-1.837.152-1.149 0-2.22-.153-3.139-.535a7.099 7.099 0 0 1-2.297-1.532 6.388 6.388 0 0 1-1.377-2.45c-.307-.918-.46-1.99-.46-3.214 0-1.225.153-2.373.536-3.292.306-.995.842-1.76 1.455-2.45a6.2 6.2 0 0 1 2.373-1.454c.918-.306 1.99-.536 3.062-.536.842 0 1.607.076 2.449.306.842.23 1.531.613 2.144 1.225.612.612 1.072 1.454 1.454 2.45.307 1.071.46 2.45.383 4.057h-11.406c0 1.76.459 3.062 1.454 3.98.919.843 2.22 1.302 3.828 1.302a5.83 5.83 0 0 0 1.608-.23c.535-.153.995-.306 1.454-.459.459-.153.919-.383 1.225-.612.383-.23.612-.383.842-.613l.842 1.837Zm-6.201-11.33c-.612 0-1.225.076-1.837.23a4.675 4.675 0 0 0-1.531.688 2.996 2.996 0 0 0-1.072 1.302c-.306.536-.459 1.148-.536 1.913h9.187c-.077-1.3-.536-2.296-1.225-3.062a4.6 4.6 0 0 0-2.986-1.071ZM120.646 28.248v-.69c0-.305 0-.612-.077-.918 0-.306-.077-.612-.077-.919 0-.306-.076-.535-.076-.765h-1.99v-1.914h3.98l.23 2.373h.153c.23-.306.459-.689.766-.995a7.48 7.48 0 0 1 1.148-.919c.459-.23.918-.459 1.454-.612a5.972 5.972 0 0 1 1.684-.23c.919 0 1.685.077 2.374.307.688.23 1.301.535 1.76 1.071.46.536.842 1.149 1.072 2.067.23.842.383 1.914.383 3.292v8.497h-2.297v-8.038c0-1.607-.23-2.832-.765-3.674-.536-.842-1.455-1.225-2.909-1.225-.536 0-.996.076-1.455.306-.459.23-.918.46-1.301.842-.383.306-.766.69-.995 1.149-.307.459-.536.918-.613 1.378v9.262h-2.296v-9.645h-.153ZM172.088 28.248v-.69c0-.305 0-.612-.076-.918 0-.306-.077-.612-.077-.919 0-.306-.076-.535-.076-.765h-1.991v-1.914h3.981l.23 2.373h.153c.229-.306.459-.689.765-.995a7.491 7.491 0 0 1 1.149-.919c.459-.23.918-.459 1.454-.612a5.972 5.972 0 0 1 1.684-.23c.919 0 1.684.077 2.373.307.689.23 1.302.535 1.761 1.071a4.806 4.806 0 0 1 1.072 2.067c.229.842.382 1.914.382 3.292v8.497h-2.296v-8.038c0-1.607-.23-2.832-.766-3.674-.536-.842-1.454-1.225-2.909-1.225-.535 0-.995.076-1.454.306-.459.23-.919.46-1.301.842-.383.306-.766.69-.996 1.149-.306.459-.536.918-.612 1.378v9.262h-2.297v-9.645h-.153ZM202.173 35.98c-.383.306-.765.612-1.225.918a5.102 5.102 0 0 1-1.607.689 6.628 6.628 0 0 1-1.761.46c-.612.076-1.225.152-1.837.152-1.148 0-2.22-.153-3.139-.535a7.094 7.094 0 0 1-2.296-1.532 6.377 6.377 0 0 1-1.378-2.45c-.307-.918-.46-1.99-.46-3.214 0-1.225.153-2.373.536-3.292.306-.995.842-1.76 1.455-2.45a6.2 6.2 0 0 1 2.373-1.454c.918-.306 1.99-.536 3.062-.536.842 0 1.607.076 2.45.306.842.23 1.531.613 2.143 1.225.612.612 1.072 1.454 1.454 2.45.307 1.071.46 2.45.383 4.057H190.92c0 1.76.459 3.062 1.455 3.98.918.843 2.219 1.302 3.827 1.302a5.83 5.83 0 0 0 1.608-.23c.536-.153.995-.306 1.454-.459.459-.153.919-.383 1.225-.612.383-.23.612-.383.842-.613l.842 1.837Zm-6.201-11.33c-.612 0-1.224.076-1.837.23a4.675 4.675 0 0 0-1.531.688 2.996 2.996 0 0 0-1.072 1.302c-.306.536-.459 1.148-.535 1.913h9.186c-.077-1.3-.536-2.296-1.225-3.062a4.6 4.6 0 0 0-2.986-1.071ZM219.244 35.903c-.076-.23-.076-.46-.153-.766-.076-.306-.076-.612-.076-.842 0-.306-.077-.612-.077-.842V17.148h-2.297v6.2c-.306-.076-.535-.153-.842-.23-.229-.076-.536-.152-.765-.152-.306-.077-.613-.077-.919-.077h-1.072c-1.148 0-2.143.153-3.062.536-.918.306-1.684.842-2.373 1.454-.689.613-1.148 1.455-1.531 2.373-.382.919-.536 2.067-.536 3.292 0 2.603.536 4.593 1.608 5.818 1.072 1.225 2.679 1.837 4.899 1.837 1.149 0 2.144-.23 2.986-.765.842-.536 1.531-1.148 1.914-1.837h.153l.306 2.296h3.981V35.98l-2.144-.076Zm-2.679-3.368c-.23 1.224-.689 2.143-1.378 2.755-.689.613-1.608.919-2.833.919-.842 0-1.531-.153-2.066-.46a4.187 4.187 0 0 1-1.378-1.224c-.307-.536-.613-1.148-.766-1.837a10.615 10.615 0 0 1-.229-2.297c0-1.99.459-3.445 1.377-4.363.919-.919 2.144-1.378 3.675-1.378.919 0 1.608.076 2.143.23.536.152.996.382 1.455.612v7.043ZM156.319 37.817v-1.99h5.129V25.032h-5.129v-1.99h7.502v12.783h5.052v1.99h-12.554Zm8.191-18.679-1.914-1.914-1.914 1.914 1.914 1.914 1.914-1.914ZM150.195 17.148l-4.9 7.884-4.899-7.884h-2.297v20.669h2.373V21.97l3.905 6.048c.459.689 1.454.689 1.837 0l3.904-6.048v15.847h2.373v-20.67h-2.296Z" fill="#5F6368"/><path d="m24.726 2.373-8.19 14.162 11.023-6.277 17.3 17.3L30.314 2.374C29.09.23 26.029.23 24.726 2.373Z" fill="url(#a)"/><path d="M38.505 16.535 44.86 27.56l-17.3 17.3 25.185-14.545c2.144-1.224 2.144-4.363 0-5.588l-14.239-8.19Z" fill="url(#b)"/><path d="m10.258 27.559 17.3-17.301L2.374 24.803c-2.143 1.225-2.143 4.363 0 5.588l14.162 8.191-6.277-11.023Z" fill="url(#c)"/><path d="M27.559 44.86 10.258 27.558l14.545 25.185c1.225 2.144 4.363 2.144 5.588 0l8.191-14.162-11.023 6.277Z" fill="url(#d)"/><path d="M27.559 27.559h10.41L27.56 17.148v10.41Z" fill="url(#e)"/><path d="M27.559 27.559H17.148l10.41 10.41V27.56Z" fill="url(#f)"/><path d="M27.559 27.559v10.41l10.41-10.41H27.56Z" fill="url(#g)"/><path d="M27.559 27.559V17.148l-10.411 10.41h10.41Z" fill="url(#h)"/><defs><linearGradient id="a" x1="16.568" y1="14.162" x2="44.892" y2="14.162" gradientUnits="userSpaceOnUse"><stop stop-color="#5F6368"/><stop offset="1" stop-color="#5F6368" stop-opacity=".6"/></linearGradient><linearGradient id="b" x1="40.955" y1="16.57" x2="40.955" y2="44.894" gradientUnits="userSpaceOnUse"><stop stop-color="#5F6368"/><stop offset="1" stop-color="#5F6368" stop-opacity=".6"/></linearGradient><linearGradient id="c" x1="14.162" y1="38.543" x2="14.162" y2="10.219" gradientUnits="userSpaceOnUse"><stop stop-color="#5F6368"/><stop offset="1" stop-color="#5F6368" stop-opacity=".6"/></linearGradient><linearGradient id="d" x1="38.541" y1="40.955" x2="10.217" y2="40.955" gradientUnits="userSpaceOnUse"><stop stop-color="#5F6368"/><stop offset="1" stop-color="#5F6368" stop-opacity=".6"/></linearGradient><linearGradient id="e" x1="27.604" y1="27.513" x2="37.747" y2="17.37" gradientUnits="userSpaceOnUse"><stop stop-color="#5F6368"/><stop offset="1" stop-color="#5F6368" stop-opacity=".6"/></linearGradient><linearGradient id="f" x1="27.508" y1="27.61" x2="17.365" y2="37.752" gradientUnits="userSpaceOnUse"><stop stop-color="#5F6368"/><stop offset="1" stop-color="#5F6368" stop-opacity=".6"/></linearGradient><linearGradient id="g" x1="26.976" y1="26.976" x2="33.105" y2="33.105" gradientUnits="userSpaceOnUse"><stop stop-color="#5F6368"/><stop offset="1" stop-color="#5F6368" stop-opacity=".6"/></linearGradient><linearGradient id="h" x1="28.138" y1="28.138" x2="22.009" y2="22.009" gradientUnits="userSpaceOnUse"><stop stop-color="#5F6368"/><stop offset="1" stop-color="#5F6368" stop-opacity=".6"/></linearGradient></defs></svg>