<svg width="159" height="28" fill="none" xmlns="http://www.w3.org/2000/svg"><path d="M47.925 22V5.962h5.51c.972 0 1.853.209 2.644.627a4.877 4.877 0 0 1 1.882 1.725c.478.731.717 1.583.717 2.553s-.24 1.83-.717 2.576a4.877 4.877 0 0 1-1.882 1.725c-.791.403-1.672.605-2.643.605h-3.047V22h-2.464Zm5.578-13.709H50.39v5.152h3.114c.583 0 1.075-.12 1.478-.358.404-.254.71-.575.919-.963a2.55 2.55 0 0 0 .336-1.255c0-.433-.112-.844-.336-1.232a2.573 2.573 0 0 0-.919-.963c-.403-.254-.895-.38-1.478-.38Zm8.686.605a1.63 1.63 0 0 1-1.164-.47 1.63 1.63 0 0 1-.47-1.165c0-.448.156-.829.47-1.143a1.63 1.63 0 0 1 1.164-.47c.448 0 .83.157 1.143.47.328.314.492.695.492 1.143 0 .448-.164.836-.492 1.165-.314.313-.695.47-1.143.47ZM60.98 22V10.576h2.42V22h-2.42Zm5.4 4.838V10.576h2.261v1.546h.135c.298-.493.761-.934 1.389-1.322.642-.388 1.403-.582 2.284-.582 1.046 0 1.98.26 2.8.784.822.522 1.471 1.24 1.95 2.15.492.91.739 1.956.739 3.136 0 1.18-.247 2.232-.74 3.158-.478.911-1.127 1.628-1.948 2.15-.822.509-1.755.762-2.8.762-.882 0-1.643-.186-2.285-.56-.627-.388-1.09-.828-1.39-1.321h-.133l.134 1.59v4.771h-2.397Zm5.711-6.697a3.21 3.21 0 0 0 1.68-.47 3.62 3.62 0 0 0 1.277-1.322c.328-.583.493-1.27.493-2.061 0-.792-.165-1.47-.493-2.038-.329-.583-.754-1.03-1.277-1.344a3.21 3.21 0 0 0-1.68-.47 3.21 3.21 0 0 0-1.68.47c-.523.313-.948.761-1.277 1.344-.328.567-.492 1.246-.492 2.038 0 .791.164 1.478.492 2.06a3.62 3.62 0 0 0 1.277 1.322 3.21 3.21 0 0 0 1.68.47Zm13.289 2.217c-1.12 0-2.12-.26-3.002-.784a5.653 5.653 0 0 1-2.083-2.15c-.493-.91-.739-1.949-.739-3.114 0-1.09.239-2.098.717-3.024a5.72 5.72 0 0 1 1.993-2.217c.867-.568 1.86-.851 2.98-.851 1.18 0 2.18.254 3.001.761a4.934 4.934 0 0 1 1.904 2.083c.433.882.65 1.875.65 2.98 0 .164-.008.313-.023.448 0 .134-.007.239-.022.313h-8.826c.12 1.135.516 1.986 1.188 2.554.687.567 1.463.851 2.33.851.776 0 1.418-.172 1.926-.515a4.083 4.083 0 0 0 1.21-1.322l1.993.963a6.182 6.182 0 0 1-2.016 2.196c-.851.552-1.912.828-3.181.828Zm-.112-10.08c-.806 0-1.493.247-2.06.74-.568.492-.949 1.15-1.143 1.97h6.339c-.03-.387-.157-.79-.38-1.209-.225-.418-.568-.769-1.031-1.053-.448-.298-1.023-.448-1.725-.448Zm7.8 9.722V5.962h2.419V22h-2.42Zm6.66-13.104a1.63 1.63 0 0 1-1.165-.47 1.63 1.63 0 0 1-.47-1.165c0-.448.156-.829.47-1.143a1.63 1.63 0 0 1 1.165-.47c.448 0 .829.157 1.142.47.329.314.493.695.493 1.143 0 .448-.164.836-.493 1.165-.313.313-.694.47-1.142.47ZM98.517 22V10.576h2.419V22h-2.419Zm5.421 0V10.576h2.285v1.568h.134c.329-.553.814-1.008 1.456-1.366a4.28 4.28 0 0 1 2.151-.56c1.403 0 2.456.418 3.158 1.254.702.836 1.053 1.941 1.053 3.315V22h-2.397v-6.9c0-.925-.231-1.597-.694-2.015-.463-.433-1.068-.65-1.815-.65-.582 0-1.09.165-1.523.493a3.28 3.28 0 0 0-1.03 1.254 3.992 3.992 0 0 0-.359 1.68V22h-2.419Zm18.213.358c-1.12 0-2.121-.26-3.002-.784a5.654 5.654 0 0 1-2.083-2.15c-.493-.91-.739-1.949-.739-3.114 0-1.09.239-2.098.717-3.024a5.721 5.721 0 0 1 1.993-2.217c.866-.568 1.86-.851 2.98-.851 1.179 0 2.18.254 3.001.761a4.936 4.936 0 0 1 1.904 2.083c.433.882.65 1.875.65 2.98 0 .164-.008.313-.023.448 0 .134-.007.239-.022.313h-8.826c.12 1.135.516 1.986 1.188 2.554.686.567 1.463.851 2.329.851.777 0 1.419-.172 1.927-.515.507-.359.91-.8 1.209-1.322l1.994.963a6.185 6.185 0 0 1-2.016 2.196c-.851.552-1.912.828-3.181.828Zm-.112-10.08c-.806 0-1.493.247-2.061.74-.567.492-.948 1.15-1.142 1.97h6.339c-.03-.387-.157-.79-.381-1.209-.224-.418-.567-.769-1.03-1.053-.448-.298-1.023-.448-1.725-.448Zm8.18 9.722V5.962h5.13c1.687 0 3.136.343 4.346 1.03a6.945 6.945 0 0 1 2.822 2.822c.672 1.21 1.008 2.599 1.008 4.167 0 1.583-.336 2.979-1.008 4.189-.657 1.194-1.598 2.135-2.822 2.822-1.21.672-2.659 1.008-4.346 1.008h-5.13Zm2.464-2.33h2.599c1.822 0 3.233-.507 4.233-1.523 1.016-1.015 1.524-2.404 1.524-4.166 0-1.762-.508-3.151-1.524-4.167-1-1.015-2.411-1.523-4.233-1.523h-2.599v11.38ZM146.341 22V5.962h5.511c.97 0 1.851.209 2.643.627a4.88 4.88 0 0 1 1.881 1.725c.478.731.717 1.583.717 2.553s-.239 1.83-.717 2.576a4.88 4.88 0 0 1-1.881 1.725c-.792.403-1.673.605-2.643.605h-3.047V22h-2.464Zm5.578-13.709h-3.114v5.152h3.114c.582 0 1.075-.12 1.478-.358.403-.254.71-.575.919-.963a2.55 2.55 0 0 0 .336-1.255c0-.433-.112-.844-.336-1.232a2.577 2.577 0 0 0-.919-.963c-.403-.254-.896-.38-1.478-.38Z" fill="#202124"/><path d="M1 18.978c13.988-2.118 19.337-.718 25.2 5.6M1 10.578c13.988 2.118 19.337.717 25.2-5.6" stroke="#1A73E8" stroke-width="4.978"/></svg>