<svg width="687" height="946" fill="none" xmlns="http://www.w3.org/2000/svg"><circle cx="287" cy="335" r="167" fill="#D2E3FC"/><circle cx="100" cy="127" r="90" fill="#4285F4" fill-opacity=".6"/><path d="M290 127.5a127.506 127.506 0 0 1-37.344 90.156A127.496 127.496 0 0 1 162.5 255V127.5H290Z" fill="#1967D2" fill-opacity=".9"/><path fill="#1A73E8" fill-opacity=".7" d="M0 335h270v270H0z"/><circle cx="160.5" cy="615.5" r="46.5" fill="#1967D2" fill-opacity=".9"/><circle cx="465" cy="724" r="222" fill="#1A73E8"/><path d="M480 529a132.996 132.996 0 0 0-82.103-122.876A132.996 132.996 0 0 0 347 396v133h133Z" fill="#1A73E8" fill-opacity=".5"/><circle cx="447.5" cy="250.5" r="84.5" fill="#1967D2"/><path fill="#D2E3FC" fill-opacity=".7" d="M309 10h328v328H309z"/></svg>