<svg width="579" height="345" fill="none" xmlns="http://www.w3.org/2000/svg"><rect x="1" y="1" width="577" height="343" rx="7" fill="#fff" stroke="#DADCE0" stroke-width="2"/><path d="M0 8a8 8 0 0 1 8-8h563a8 8 0 0 1 8 8v34H0V8Z" fill="#E8EAED"/><circle cx="30" cy="22" r="6" fill="#EA4335"/><circle cx="51" cy="22" r="6" fill="#FBBC04"/><circle cx="72" cy="22" r="6" fill="#34A853"/><path stroke="#DADCE0" stroke-width="2" d="M0 41h579"/><path d="M59.833 88.26v-1.704h-5.291v-3.604h6.135v-1.749h-8.253V94h8.297v-1.74h-6.179v-4h5.291Zm3.357 9.396h2.101V93.14a3.318 3.318 0 0 0 .765.624c.24.134.5.237.782.307.287.07.6.106.94.106.598 0 1.128-.123 1.591-.37a3.42 3.42 0 0 0 1.17-1.019c.316-.428.553-.937.711-1.53.164-.591.246-1.23.246-1.915v-.185c0-.715-.082-1.368-.246-1.96a4.718 4.718 0 0 0-.712-1.538 3.262 3.262 0 0 0-1.178-.993c-.463-.234-.999-.352-1.608-.352-.31 0-.604.036-.879.106a3.055 3.055 0 0 0-.756.281 2.79 2.79 0 0 0-.492.334 3.262 3.262 0 0 0-.422.43l-.079-.975H63.19v13.166Zm6.206-8.499v.185c0 .422-.041.823-.124 1.204a3.174 3.174 0 0 1-.395 1.002 2.02 2.02 0 0 1-.686.685c-.275.164-.609.246-1.002.246-.24 0-.46-.026-.659-.079a2.348 2.348 0 0 1-.536-.228 1.939 1.939 0 0 1-.404-.352 2.139 2.139 0 0 1-.299-.448v-4.228a2.52 2.52 0 0 1 .325-.474c.13-.14.278-.258.448-.352a1.83 1.83 0 0 1 .501-.202c.188-.047.39-.07.607-.07.392 0 .73.082 1.01.246.282.164.513.387.695.668.176.281.305.612.387.993.088.375.132.776.132 1.204Zm10.801 2.268a.867.867 0 0 1-.105.422 1.08 1.08 0 0 1-.299.343 1.866 1.866 0 0 1-.66.307c-.269.076-.585.114-.948.114-.27 0-.537-.026-.8-.079a2.211 2.211 0 0 1-.703-.281 1.666 1.666 0 0 1-.528-.483 1.5 1.5 0 0 1-.228-.748h-2.04c0 .393.095.78.282 1.16.188.381.463.718.826 1.011.358.3.8.54 1.327.721.534.182 1.143.273 1.828.273.616 0 1.175-.07 1.68-.211.503-.141.937-.337 1.3-.59.357-.251.633-.553.826-.904.2-.352.299-.739.299-1.16 0-.434-.094-.81-.281-1.126a2.643 2.643 0 0 0-.791-.826 4.99 4.99 0 0 0-1.23-.562c-.481-.153-1.012-.282-1.592-.387a7.716 7.716 0 0 1-1.037-.237 2.474 2.474 0 0 1-.633-.29.871.871 0 0 1-.342-.343 1.025 1.025 0 0 1-.097-.448c0-.159.038-.308.114-.449a1.05 1.05 0 0 1 .343-.378c.152-.117.346-.208.58-.272.24-.07.519-.105.835-.105.346 0 .647.046.905.14.258.088.47.208.633.36.14.13.246.276.317.44.076.158.114.325.114.5h2.1c0-.427-.093-.825-.28-1.194a2.835 2.835 0 0 0-.8-.958c-.352-.27-.78-.48-1.284-.633a5.683 5.683 0 0 0-1.705-.238 5.39 5.39 0 0 0-1.617.229c-.48.152-.89.36-1.23.624a2.84 2.84 0 0 0-.8.923 2.329 2.329 0 0 0-.273 1.099c0 .404.09.758.273 1.063.181.305.433.568.755.791.329.234.718.434 1.17.598.456.164.96.301 1.511.413.44.082.806.17 1.099.263.293.094.53.194.712.3.17.116.29.24.36.368a.847.847 0 0 1 .114.44Zm5.08-6.935v1.75h2.927v6.02h-2.927V94h7.84v-1.74h-2.795v-7.77h-5.045Zm2.734-2.46c0 .222.053.418.158.588a.869.869 0 0 0 .483.343c.205.064.393.079.563.044a.92.92 0 0 0 .44-.22.945.945 0 0 0 .562-.378.917.917 0 0 0 .132-.676.888.888 0 0 0-.343-.616c-.194-.164-.448-.246-.765-.246-.187 0-.357.03-.51.088a1.053 1.053 0 0 0-.633.607 1.2 1.2 0 0 0-.087.465Zm7.998-1.53v1.749h3.006v10.01h-3.006V94h8.007v-1.74h-2.883V80.5h-5.124Zm10.019 8.657v.185c0 .697.1 1.339.299 1.925.199.586.489 1.095.87 1.529.375.433.838.773 1.389 1.02.551.245 1.175.369 1.872.369.691 0 1.31-.124 1.854-.37a3.923 3.923 0 0 0 1.389-1.02c.375-.433.662-.942.861-1.528.2-.586.299-1.228.299-1.925v-.185c0-.691-.099-1.33-.299-1.916a4.528 4.528 0 0 0-.861-1.538 4.017 4.017 0 0 0-1.397-1.02c-.545-.246-1.166-.369-1.864-.369-.697 0-1.318.124-1.863.37a3.943 3.943 0 0 0-1.38 1.02 4.447 4.447 0 0 0-.87 1.537 5.923 5.923 0 0 0-.299 1.916Zm2.101.185v-.185c0-.416.044-.814.132-1.195.093-.38.237-.715.43-1.002.188-.287.425-.516.712-.686.293-.17.639-.255 1.037-.255.405 0 .75.085 1.038.255.293.17.536.399.729.686.182.287.319.621.413 1.002.094.38.141.78.141 1.195v.185c0 .427-.047.832-.141 1.213-.088.38-.225.714-.413 1.002a2.117 2.117 0 0 1-.721.685 2.069 2.069 0 0 1-1.028.246c-.404 0-.753-.082-1.046-.246a2.126 2.126 0 0 1-.721-.685 3.096 3.096 0 0 1-.43-1.002 5.376 5.376 0 0 1-.132-1.213ZM117.226 94h2.1v-6.785c.094-.158.202-.305.325-.44a2.145 2.145 0 0 1 1.002-.624c.223-.07.463-.105.721-.105.311 0 .586.035.826.105.24.065.446.176.615.334.17.159.299.37.387.633.088.264.132.592.132.985V94h2.101v-5.933c0-.668-.08-1.236-.238-1.705-.158-.474-.381-.864-.668-1.169a2.557 2.557 0 0 0-1.037-.668 4.04 4.04 0 0 0-1.336-.21 3.477 3.477 0 0 0-1.977.606 3.842 3.842 0 0 0-.923.923l-.132-1.354h-1.898V94ZM329.98 90.704c0 .281-.061.53-.184.747a1.622 1.622 0 0 1-.475.545 2.154 2.154 0 0 1-.729.343 3.36 3.36 0 0 1-.897.114c-.381 0-.732-.047-1.054-.14a2.317 2.317 0 0 1-.827-.431 2.015 2.015 0 0 1-.571-.712 2.967 2.967 0 0 1-.246-1.028h-2.109c.006.615.129 1.16.369 1.634.246.475.577.888.993 1.24a4.78 4.78 0 0 0 1.591.861c.609.193 1.227.29 1.854.29.592 0 1.155-.073 1.688-.22a4.353 4.353 0 0 0 1.406-.677c.399-.287.715-.647.949-1.08.241-.434.361-.935.361-1.504 0-.615-.138-1.157-.413-1.626a3.976 3.976 0 0 0-1.082-1.221 5.957 5.957 0 0 0-1.195-.686 9.62 9.62 0 0 0-1.318-.483c-.358-.106-.7-.22-1.029-.343a4.551 4.551 0 0 1-.861-.43 2.12 2.12 0 0 1-.589-.572 1.434 1.434 0 0 1-.228-.773 1.638 1.638 0 0 1 .633-1.319c.199-.152.433-.27.703-.351a2.93 2.93 0 0 1 .896-.132c.369 0 .695.056.976.167.287.105.53.252.729.44.194.193.343.424.449.694.111.263.181.556.21.879h2.092c0-.58-.117-1.108-.351-1.582a3.762 3.762 0 0 0-.941-1.24 4.333 4.333 0 0 0-1.406-.79 5.038 5.038 0 0 0-1.731-.29c-.586 0-1.146.081-1.679.245-.527.159-.99.39-1.389.695-.398.31-.715.685-.949 1.125a3.04 3.04 0 0 0-.352 1.468c0 .503.1.958.299 1.362.205.398.487.756.844 1.072.357.31.788.592 1.292.844.51.246 1.066.454 1.67.624.392.111.747.237 1.063.378.323.135.601.287.835.457.223.181.396.387.519.615.123.229.184.492.184.791ZM340.246 94h2.145v-.15a3.603 3.603 0 0 1-.273-.878 7.04 7.04 0 0 1-.088-1.16v-4.228c0-.54-.099-1.014-.299-1.424a2.788 2.788 0 0 0-.826-1.028 3.628 3.628 0 0 0-1.257-.607c-.48-.14-.999-.21-1.555-.21-.621 0-1.175.082-1.661.246a3.624 3.624 0 0 0-1.213.65c-.34.27-.598.58-.774.932a2.528 2.528 0 0 0-.272 1.098h2.109c0-.181.032-.351.097-.51.07-.164.176-.301.316-.413.141-.123.317-.22.528-.29.216-.07.468-.105.756-.105.316 0 .594.04.834.123.247.076.455.187.625.334.158.146.278.32.36.518.088.2.132.422.132.668v.642h-1.53c-.685 0-1.3.064-1.845.193-.539.13-.993.317-1.363.563a2.675 2.675 0 0 0-.914 1.002c-.205.398-.307.858-.307 1.38 0 .404.079.782.237 1.133.164.346.393.642.686.888.287.252.632.451 1.037.598.41.14.861.21 1.353.21.305 0 .589-.028.853-.087a3.66 3.66 0 0 0 .738-.246c.229-.1.434-.217.615-.352a4.06 4.06 0 0 0 .501-.44c.03.182.062.358.097.528.041.164.094.305.158.422Zm-2.558-1.512c-.269 0-.503-.032-.703-.096a1.536 1.536 0 0 1-.501-.282 1.16 1.16 0 0 1-.307-.421 1.399 1.399 0 0 1-.106-.545c0-.235.041-.446.123-.633.088-.188.22-.349.396-.484.199-.158.466-.278.8-.36a4.698 4.698 0 0 1 1.186-.132h1.354v1.758a1.695 1.695 0 0 1-.326.44c-.14.14-.307.266-.5.377a2.995 2.995 0 0 1-.651.273c-.234.07-.489.105-.765.105Zm8.491-7.998h-1.828V94h1.933v-7.304c.035-.088.073-.167.114-.237.047-.07.1-.132.159-.185a.687.687 0 0 1 .272-.167c.111-.04.237-.061.378-.061.129 0 .243.017.343.053.105.035.196.09.272.167a.68.68 0 0 1 .167.316c.041.129.062.287.062.475V94h1.898v-7.277a.899.899 0 0 1 .281-.475.853.853 0 0 1 .264-.15c.1-.034.217-.052.352-.052.129 0 .246.017.351.053.112.035.205.09.282.167.076.082.134.19.175.325.041.129.062.287.062.474V94h1.933v-6.917c0-.498-.052-.923-.158-1.274-.099-.358-.243-.648-.43-.87a1.714 1.714 0 0 0-.668-.466 2.144 2.144 0 0 0-.835-.159 2.3 2.3 0 0 0-.651.088 1.84 1.84 0 0 0-.87.545 2.558 2.558 0 0 0-.281.378 1.75 1.75 0 0 0-.211-.386 1.382 1.382 0 0 0-.765-.545 2.33 2.33 0 0 0-.633-.08c-.451 0-.837.109-1.16.326a2.22 2.22 0 0 0-.747.896l-.061-1.046Zm9.633 13.166h2.1V93.14c.111.123.232.237.36.342.129.106.264.2.405.282.24.134.501.237.782.307.287.07.601.106.94.106.598 0 1.128-.123 1.591-.37a3.415 3.415 0 0 0 1.169-1.019 4.48 4.48 0 0 0 .712-1.53c.164-.591.246-1.23.246-1.915v-.185c0-.715-.082-1.368-.246-1.96-.164-.597-.401-1.11-.712-1.538a3.257 3.257 0 0 0-1.178-.993c-.462-.234-.999-.352-1.608-.352-.311 0-.603.036-.879.106a3.068 3.068 0 0 0-.756.281 2.77 2.77 0 0 0-.492.334 3.287 3.287 0 0 0-.422.43l-.079-.975h-1.933v13.166Zm6.205-8.499v.185c0 .422-.041.823-.123 1.204a3.163 3.163 0 0 1-.396 1.002 2.016 2.016 0 0 1-.686.685c-.275.164-.609.246-1.001.246-.241 0-.46-.026-.66-.079a2.347 2.347 0 0 1-.536-.228 1.94 1.94 0 0 1-.404-.352 2.143 2.143 0 0 1-.299-.448v-4.228c.094-.175.202-.334.325-.474.129-.14.279-.258.449-.352.146-.087.313-.155.501-.202.187-.047.389-.07.606-.07.393 0 .729.082 1.011.246.281.164.512.387.694.668.176.281.305.612.387.993.088.375.132.776.132 1.204Zm4.992-8.657v1.749h3.006v10.01h-3.006V94h8.007v-1.74h-2.883V80.5h-5.124Zm10.889 3.99v1.75h2.927v6.02h-2.927V94h7.84v-1.74h-2.795v-7.77h-5.045Zm2.734-2.46c0 .222.053.418.158.588a.866.866 0 0 0 .483.343c.206.064.393.079.563.044a.918.918 0 0 0 .439-.22.947.947 0 0 0 .563-.378.917.917 0 0 0 .132-.676.892.892 0 0 0-.343-.616c-.193-.164-.448-.246-.765-.246-.187 0-.357.03-.509.088a1.036 1.036 0 0 0-.633.607c-.059.14-.088.295-.088.465ZM388.226 94h2.1v-6.785c.094-.158.202-.305.325-.44a2.145 2.145 0 0 1 1.002-.624c.223-.07.463-.105.721-.105.311 0 .586.035.826.105.24.065.446.176.615.334.17.159.299.37.387.633.088.264.132.592.132.985V94h2.101v-5.933c0-.668-.08-1.236-.238-1.705-.158-.474-.381-.864-.668-1.169a2.557 2.557 0 0 0-1.037-.668 4.04 4.04 0 0 0-1.336-.21 3.477 3.477 0 0 0-1.977.606 3.842 3.842 0 0 0-.923.923l-.132-1.354h-1.898V94Zm10.538-4.825v.184c0 .686.088 1.325.263 1.916.182.586.437 1.093.765 1.52.334.434.735.774 1.204 1.02.469.24.996.36 1.582.36.322 0 .621-.034.897-.105a2.843 2.843 0 0 0 1.177-.58 4.43 4.43 0 0 0 .387-.36v.66c0 .356-.053.676-.158.957-.1.281-.243.519-.431.712-.205.2-.454.352-.747.457a2.87 2.87 0 0 1-.993.158 2.95 2.95 0 0 1-.642-.07 2.768 2.768 0 0 1-.624-.202 3.308 3.308 0 0 1-1.151-.897l-.993 1.275c.211.28.463.521.756.72.293.2.6.36.923.484a5.42 5.42 0 0 0 1.854.36 5.34 5.34 0 0 0 1.749-.272c.533-.176.99-.434 1.371-.774.375-.345.665-.767.87-1.265.211-.493.317-1.058.317-1.697V84.49h-1.908l-.087.958a3.511 3.511 0 0 0-.378-.386 2.804 2.804 0 0 0-1.213-.633 3.736 3.736 0 0 0-.958-.115c-.592 0-1.125.12-1.6.36-.469.235-.87.566-1.204.994-.334.428-.589.94-.765 1.538a6.927 6.927 0 0 0-.263 1.969Zm2.109.184v-.184c0-.428.044-.83.132-1.204.088-.381.225-.715.413-1.002.182-.287.413-.513.694-.677.282-.164.618-.246 1.011-.246.223 0 .428.026.615.079.188.047.358.111.51.193.17.1.319.22.448.36.135.141.249.3.343.475v4.166a2.66 2.66 0 0 1-.325.466c-.123.14-.264.26-.422.36a2.096 2.096 0 0 1-.536.22c-.194.053-.41.08-.651.08-.386 0-.72-.08-1.001-.238a2.015 2.015 0 0 1-.695-.677 2.898 2.898 0 0 1-.413-.975 5.586 5.586 0 0 1-.123-1.196Zm24.029-.325L427.354 94h2.259v-.114l-2.733-5.353c.351-.158.671-.346.958-.562a3.398 3.398 0 0 0 1.213-1.723c.117-.357.176-.756.176-1.195 0-.639-.112-1.196-.334-1.67a3.33 3.33 0 0 0-.932-1.204 4.272 4.272 0 0 0-1.441-.721 6.66 6.66 0 0 0-1.829-.255h-4.06V94h2.109v-4.966h2.162Zm-2.162-1.723v-4.385h1.951a3.4 3.4 0 0 1 .985.15c.293.087.542.219.747.395.223.187.389.422.501.703.117.275.176.597.176.967 0 .328-.053.62-.159.878a1.823 1.823 0 0 1-.439.65 2.156 2.156 0 0 1-.773.475 3.175 3.175 0 0 1-1.011.167h-1.978ZM437.541 94h2.145v-.15a3.603 3.603 0 0 1-.273-.878 6.933 6.933 0 0 1-.088-1.16v-4.228c0-.54-.099-1.014-.299-1.424a2.788 2.788 0 0 0-.826-1.028 3.628 3.628 0 0 0-1.257-.607c-.48-.14-.999-.21-1.555-.21-.621 0-1.175.082-1.661.246a3.624 3.624 0 0 0-1.213.65c-.34.27-.598.58-.774.932a2.514 2.514 0 0 0-.272 1.098h2.109c0-.181.032-.351.097-.51.07-.164.176-.301.316-.413.141-.123.317-.22.528-.29.216-.07.468-.105.755-.105.317 0 .595.04.835.123.246.076.454.187.624.334.159.146.279.32.361.518.088.2.132.422.132.668v.642h-1.53c-.685 0-1.3.064-1.845.193-.539.13-.994.317-1.363.563a2.675 2.675 0 0 0-.914 1.002c-.205.398-.307.858-.307 1.38 0 .404.079.782.237 1.133.164.346.393.642.685.888.288.252.633.451 1.038.598.41.14.861.21 1.353.21.305 0 .589-.028.853-.087a3.66 3.66 0 0 0 .738-.246c.228-.1.434-.217.615-.352a4.06 4.06 0 0 0 .501-.44c.029.182.062.358.097.528.041.164.094.305.158.422Zm-2.558-1.512a2.29 2.29 0 0 1-.703-.096 1.536 1.536 0 0 1-.501-.282 1.16 1.16 0 0 1-.307-.421 1.399 1.399 0 0 1-.106-.545c0-.235.041-.446.123-.633.088-.188.22-.349.396-.484.199-.158.466-.278.8-.36a4.698 4.698 0 0 1 1.186-.132h1.354v1.758a1.718 1.718 0 0 1-.326.44 2.36 2.36 0 0 1-.501.377c-.193.112-.41.203-.65.273-.234.07-.489.105-.765.105Zm11.514-10.318h-2.109v2.32h-2.303v1.574h2.303v4.675c0 .61.079 1.131.237 1.565.164.433.39.788.677 1.063.287.281.63.49 1.028.624a4.35 4.35 0 0 0 1.327.194c.264 0 .528-.015.791-.044a7.7 7.7 0 0 0 .774-.106 6.55 6.55 0 0 0 .685-.167c.217-.07.402-.152.554-.246l-.229-1.45-.395.088c-.152.03-.316.055-.492.079-.182.03-.369.053-.563.07a6.2 6.2 0 0 1-.562.026c-.252 0-.484-.029-.695-.087a1.308 1.308 0 0 1-.905-.853 2.773 2.773 0 0 1-.123-.888v-4.543h3.577V84.49h-3.577v-2.32Zm11.03 12.006c.926 0 1.714-.182 2.365-.545.656-.363 1.142-.774 1.459-1.23l-1.125-1.09a2.927 2.927 0 0 1-1.117.87 3.57 3.57 0 0 1-1.459.299c-.38 0-.732-.065-1.054-.194a2.465 2.465 0 0 1-.826-.545 2.56 2.56 0 0 1-.554-.756 3.745 3.745 0 0 1-.299-1.046v-.043h6.592v-.906c0-.68-.091-1.306-.273-1.88a4.181 4.181 0 0 0-.808-1.486c-.358-.41-.8-.73-1.327-.958-.528-.234-1.134-.352-1.82-.352a4.357 4.357 0 0 0-3.164 1.336c-.41.428-.732.944-.967 1.547-.234.604-.351 1.278-.351 2.022v.36c0 .65.111 1.257.334 1.82.228.556.551 1.04.967 1.45.416.416.914.74 1.494.975.586.235 1.23.352 1.933.352Zm-.255-8.157c.352 0 .66.062.923.185.27.117.493.276.668.475.182.205.323.445.422.72.1.27.15.542.15.818v.14h-4.474c.064-.363.164-.688.299-.975.135-.287.302-.533.501-.738.199-.2.425-.352.677-.458a2.08 2.08 0 0 1 .834-.167ZM52.213 145h3.234c.586 0 1.134-.07 1.644-.211a5.268 5.268 0 0 0 1.406-.606 4.978 4.978 0 0 0 1.02-.871c.31-.339.574-.717.79-1.133.223-.428.393-.9.51-1.415a7.188 7.188 0 0 0 .185-1.653v-1.002c0-.603-.065-1.171-.193-1.705a6.328 6.328 0 0 0-.545-1.467 5.026 5.026 0 0 0-.853-1.161 4.545 4.545 0 0 0-1.151-.861 5.472 5.472 0 0 0-1.327-.519 6.091 6.091 0 0 0-1.556-.193h-3.164V145Zm2.136-11.074h1.028c.34.006.656.047.95.123.292.07.556.173.79.307.323.182.6.419.835.712.235.287.422.61.563.967.111.293.196.612.255.958.058.346.087.712.087 1.099v1.019c0 .393-.029.762-.087 1.108a5.095 5.095 0 0 1-.255.958 3.596 3.596 0 0 1-.501.923c-.2.263-.428.483-.686.659-.252.17-.536.302-.852.395-.311.088-.654.132-1.029.132H54.35v-9.36Zm13.262 11.25c.926 0 1.714-.182 2.365-.545.656-.363 1.142-.774 1.459-1.231l-1.125-1.089a2.93 2.93 0 0 1-1.117.87 3.574 3.574 0 0 1-1.459.298c-.38 0-.732-.064-1.054-.193a2.468 2.468 0 0 1-.827-.545 2.55 2.55 0 0 1-.553-.756 3.763 3.763 0 0 1-.299-1.046v-.043h6.592v-.906c0-.679-.091-1.306-.273-1.881a4.185 4.185 0 0 0-.808-1.485c-.358-.41-.8-.729-1.327-.958-.528-.234-1.134-.352-1.82-.352a4.364 4.364 0 0 0-3.164 1.336 4.63 4.63 0 0 0-.967 1.547c-.234.604-.351 1.278-.351 2.022v.36c0 .65.111 1.257.334 1.819.228.557.55 1.04.967 1.451.416.416.914.741 1.494.975a5.15 5.15 0 0 0 1.933.352Zm-.255-8.156c.352 0 .66.061.923.184.27.117.493.275.668.475.182.205.322.445.422.72.1.27.15.542.15.818v.14h-4.474c.064-.363.164-.688.299-.975.135-.287.302-.533.5-.738.2-.2.425-.352.678-.457.257-.112.536-.167.834-.167Zm7.032-5.52v1.749h3.006v10.011h-3.006V145h8.006v-1.74h-2.882V131.5h-5.124Zm14.625 1.67h-2.11v2.32h-2.302v1.573h2.302v4.676c0 .61.08 1.131.238 1.565.164.433.39.788.676 1.063.288.281.63.489 1.029.624.404.129.846.194 1.327.194.263 0 .527-.015.79-.044.27-.024.528-.059.774-.106s.475-.102.686-.167c.217-.07.401-.152.554-.246l-.229-1.45-.395.088a9.568 9.568 0 0 1-.493.079 8.03 8.03 0 0 1-.562.07c-.194.018-.381.027-.563.027-.252 0-.483-.03-.694-.088a1.316 1.316 0 0 1-.545-.299 1.365 1.365 0 0 1-.36-.554 2.773 2.773 0 0 1-.123-.888v-4.544h3.577v-1.573h-3.577v-2.32ZM101.678 145h2.144v-.149a3.614 3.614 0 0 1-.272-.879 6.94 6.94 0 0 1-.088-1.16v-4.228c0-.539-.1-1.014-.299-1.424a2.792 2.792 0 0 0-.826-1.028 3.641 3.641 0 0 0-1.257-.607 5.536 5.536 0 0 0-1.556-.211c-.62 0-1.174.082-1.66.247a3.63 3.63 0 0 0-1.214.65c-.34.269-.597.58-.773.932a2.51 2.51 0 0 0-.272 1.098h2.109c0-.181.032-.351.097-.51.07-.164.175-.301.316-.413.14-.123.316-.219.527-.29.217-.07.469-.105.756-.105.317 0 .595.041.835.123.246.076.454.187.624.334.158.146.278.319.36.518.088.2.132.422.132.668v.642h-1.529c-.685 0-1.3.064-1.846.193-.539.129-.993.317-1.362.563a2.676 2.676 0 0 0-.914 1.002c-.205.398-.308.858-.308 1.38 0 .404.08.782.238 1.133.164.346.392.642.685.888a3.22 3.22 0 0 0 1.037.598c.41.14.862.211 1.354.211a3.71 3.71 0 0 0 1.591-.334c.228-.1.433-.217.615-.352.187-.14.354-.287.501-.439.029.181.061.357.097.527.041.164.093.305.158.422Zm-2.558-1.512c-.27 0-.504-.032-.703-.096a1.53 1.53 0 0 1-.501-.282 1.146 1.146 0 0 1-.308-.422 1.405 1.405 0 0 1-.105-.544c0-.235.04-.446.123-.633a1.3 1.3 0 0 1 .395-.484c.2-.158.466-.278.8-.36.334-.088.73-.132 1.187-.132h1.353v1.758a1.683 1.683 0 0 1-.325.439c-.14.141-.307.267-.501.378-.193.112-.41.202-.65.273-.235.07-.49.105-.765.105ZM325.814 132.203h-2.619V145h1.978v-4.342l-.114-5.502 1.784 5.898h1.098l1.969-6.109-.123 5.713V145h1.986v-12.797h-2.627l-1.75 5.476-1.582-5.476ZM340.246 145h2.145v-.149a3.613 3.613 0 0 1-.273-.879 7.048 7.048 0 0 1-.088-1.16v-4.228c0-.539-.099-1.014-.299-1.424a2.782 2.782 0 0 0-.826-1.028 3.624 3.624 0 0 0-1.257-.607 5.535 5.535 0 0 0-1.555-.211c-.621 0-1.175.082-1.661.247a3.626 3.626 0 0 0-1.213.65c-.34.269-.598.58-.774.932a2.523 2.523 0 0 0-.272 1.098h2.109c0-.181.032-.351.097-.51a1.05 1.05 0 0 1 .316-.413c.141-.123.317-.219.528-.29.216-.07.468-.105.756-.105.316 0 .594.041.834.123.247.076.455.187.625.334.158.146.278.319.36.518.088.2.132.422.132.668v.642h-1.53c-.685 0-1.3.064-1.845.193-.539.129-.993.317-1.363.563a2.68 2.68 0 0 0-.914 1.002c-.205.398-.307.858-.307 1.38 0 .404.079.782.237 1.133.164.346.393.642.686.888.287.252.632.451 1.037.598.41.14.861.211 1.353.211a3.718 3.718 0 0 0 1.591-.334c.229-.1.434-.217.615-.352.188-.14.355-.287.501-.439.03.181.062.357.097.527.041.164.094.305.158.422Zm-2.558-1.512c-.269 0-.503-.032-.703-.096a1.534 1.534 0 0 1-.501-.282 1.15 1.15 0 0 1-.307-.422 1.392 1.392 0 0 1-.106-.544c0-.235.041-.446.123-.633a1.3 1.3 0 0 1 .396-.484c.199-.158.466-.278.8-.36a4.692 4.692 0 0 1 1.186-.132h1.354v1.758a1.688 1.688 0 0 1-.326.439c-.14.141-.307.267-.5.378a2.996 2.996 0 0 1-.651.273 2.66 2.66 0 0 1-.765.105Zm11.47-4.799-2.25-3.199h-2.311l3.331 4.685-3.446 4.825h2.33l2.364-3.322 2.373 3.322h2.32l-3.445-4.825 3.34-4.685h-2.329l-2.277 3.199Zm19.661 1.433h2.171c.645 0 1.237-.094 1.776-.281a4.142 4.142 0 0 0 1.406-.8c.392-.34.697-.747.914-1.222a3.86 3.86 0 0 0 .325-1.608c0-.615-.108-1.169-.325-1.661a3.583 3.583 0 0 0-.914-1.257 4.142 4.142 0 0 0-1.406-.8 5.547 5.547 0 0 0-1.776-.29h-4.28V145h2.109v-4.878Zm0-1.723v-4.473h2.171c.358.006.677.064.958.176.287.111.531.269.73.474.199.205.348.448.448.73.105.275.158.583.158.923 0 .31-.053.597-.158.861-.1.264-.249.492-.448.685a2.133 2.133 0 0 1-.73.457c-.281.106-.6.162-.958.167h-2.171ZM383.488 145h2.145v-.149a3.657 3.657 0 0 1-.273-.879 7.048 7.048 0 0 1-.088-1.16v-4.228c0-.539-.099-1.014-.298-1.424a2.795 2.795 0 0 0-.827-1.028 3.628 3.628 0 0 0-1.256-.607 5.542 5.542 0 0 0-1.556-.211c-.621 0-1.175.082-1.661.247a3.626 3.626 0 0 0-1.213.65c-.34.269-.598.58-.773.932a2.51 2.51 0 0 0-.273 1.098h2.109c0-.181.033-.351.097-.51.07-.164.176-.301.317-.413.14-.123.316-.219.527-.29.217-.07.469-.105.756-.105.316 0 .594.041.835.123.246.076.454.187.624.334.158.146.278.319.36.518.088.2.132.422.132.668v.642h-1.529c-.686 0-1.301.064-1.846.193-.539.129-.993.317-1.362.563a2.664 2.664 0 0 0-.914 1.002c-.206.398-.308.858-.308 1.38 0 .404.079.782.237 1.133.164.346.393.642.686.888.287.252.633.451 1.037.598.41.14.861.211 1.353.211.305 0 .589-.03.853-.088.264-.059.51-.141.738-.246.229-.1.434-.217.615-.352.188-.14.355-.287.501-.439.03.181.062.357.097.527.041.164.094.305.158.422Zm-2.557-1.512c-.27 0-.504-.032-.703-.096a1.513 1.513 0 0 1-.501-.282 1.141 1.141 0 0 1-.308-.422 1.41 1.41 0 0 1-.106-.544c0-.235.041-.446.124-.633.087-.188.219-.349.395-.484.199-.158.466-.278.8-.36a4.692 4.692 0 0 1 1.186-.132h1.354v1.758a1.706 1.706 0 0 1-.325.439 2.384 2.384 0 0 1-.501.378c-.194.112-.41.202-.651.273-.234.07-.489.105-.764.105Zm13.869-8.174c-.656 0-1.257.153-1.802.457a4.366 4.366 0 0 0-1.389 1.257l-.008-.219-.088-1.319h-1.969V145h2.101v-5.871c.111-.281.249-.53.413-.747.164-.217.363-.396.597-.536.217-.147.466-.255.747-.325.282-.071.598-.106.95-.106.31 0 .621.018.931.053.317.035.636.088.958.158l.299-2.074a4.122 4.122 0 0 0-.756-.167 6.682 6.682 0 0 0-.984-.071Zm8.455-2.144h-2.109v2.32h-2.303v1.573h2.303v4.676c0 .61.079 1.131.237 1.565.164.433.389.788.677 1.063a2.67 2.67 0 0 0 1.028.624c.404.129.847.194 1.327.194.264 0 .527-.015.791-.044.27-.024.527-.059.773-.106.247-.047.475-.102.686-.167.217-.07.401-.152.554-.246l-.229-1.45-.395.088a9.816 9.816 0 0 1-.492.079 8.09 8.09 0 0 1-.563.07 6.065 6.065 0 0 1-.562.027c-.252 0-.484-.03-.695-.088a1.32 1.32 0 0 1-.545-.299 1.368 1.368 0 0 1-.36-.554 2.773 2.773 0 0 1-.123-.888v-4.544h3.577v-1.573h-3.577v-2.32Zm7.075 2.32v1.749h2.927v6.021h-2.927V145h7.84v-1.74h-2.795v-7.77h-5.045Zm2.733-2.461c0 .223.053.419.159.589a.87.87 0 0 0 .483.343c.205.064.393.079.563.044a.92.92 0 0 0 .439-.22.942.942 0 0 0 .563-.378.922.922 0 0 0 .131-.677.888.888 0 0 0-.342-.615c-.194-.164-.449-.246-.765-.246-.188 0-.357.029-.51.088a1.058 1.058 0 0 0-.633.606 1.213 1.213 0 0 0-.088.466Zm11.813.141h-2.109v2.32h-2.303v1.573h2.303v4.676c0 .61.079 1.131.237 1.565.164.433.39.788.677 1.063.287.281.63.489 1.028.624.404.129.847.194 1.327.194.264 0 .527-.015.791-.044.27-.024.527-.059.774-.106.246-.047.474-.102.685-.167.217-.07.402-.152.554-.246l-.229-1.45-.395.088a9.816 9.816 0 0 1-.492.079 8.09 8.09 0 0 1-.563.07 6.065 6.065 0 0 1-.562.027c-.252 0-.484-.03-.695-.088a1.32 1.32 0 0 1-.545-.299 1.368 1.368 0 0 1-.36-.554 2.773 2.773 0 0 1-.123-.888v-4.544h3.577v-1.573h-3.577v-2.32Zm7.075 2.32v1.749h2.927v6.021h-2.927V145h7.84v-1.74h-2.795v-7.77h-5.045Zm2.734-2.461c0 .223.052.419.158.589a.87.87 0 0 0 .483.343c.205.064.393.079.563.044a.92.92 0 0 0 .439-.22.942.942 0 0 0 .563-.378.917.917 0 0 0 .131-.677.888.888 0 0 0-.342-.615c-.194-.164-.449-.246-.765-.246-.187 0-.357.029-.51.088a1.058 1.058 0 0 0-.633.606 1.212 1.212 0 0 0-.087.466Zm7.207 7.128v.185c0 .697.099 1.339.298 1.925.2.586.49 1.095.871 1.529.375.433.837.773 1.388 1.019.551.247 1.175.37 1.872.37.692 0 1.31-.123 1.855-.37a3.924 3.924 0 0 0 1.388-1.019c.375-.434.663-.943.862-1.529a5.955 5.955 0 0 0 .299-1.925v-.185c0-.691-.1-1.33-.299-1.916a4.531 4.531 0 0 0-.862-1.538 4.004 4.004 0 0 0-1.397-1.019c-.545-.246-1.166-.37-1.863-.37-.698 0-1.319.124-1.864.37a3.954 3.954 0 0 0-1.379 1.019 4.467 4.467 0 0 0-.871 1.538 5.925 5.925 0 0 0-.298 1.916Zm2.1.185v-.185c0-.416.044-.814.132-1.195.094-.381.237-.715.431-1.002a2.14 2.14 0 0 1 .712-.686c.293-.17.638-.254 1.037-.254.404 0 .75.084 1.037.254.293.17.536.399.729.686.182.287.32.621.413 1.002.094.381.141.779.141 1.195v.185c0 .428-.047.832-.141 1.213a3.051 3.051 0 0 1-.413 1.002 2.115 2.115 0 0 1-.72.685 2.072 2.072 0 0 1-1.029.246c-.404 0-.753-.082-1.046-.246a2.115 2.115 0 0 1-.72-.685 3.095 3.095 0 0 1-.431-1.002 5.376 5.376 0 0 1-.132-1.213Zm9.097 4.658h2.1v-6.785c.094-.158.203-.305.326-.44a2.167 2.167 0 0 1 1.002-.624c.222-.07.462-.105.72-.105.311 0 .586.035.826.105.241.065.446.176.616.334.17.159.299.369.386.633.088.264.132.592.132.985V145h2.101v-5.933c0-.668-.079-1.236-.237-1.705-.159-.474-.381-.864-.668-1.169a2.572 2.572 0 0 0-1.038-.668 4.054 4.054 0 0 0-1.335-.211 3.464 3.464 0 0 0-2.479 1.029 3.88 3.88 0 0 0-.422.501l-.132-1.354h-1.898V145Zm17.024-2.575a.872.872 0 0 1-.105.422 1.075 1.075 0 0 1-.299.342 1.862 1.862 0 0 1-.659.308 3.52 3.52 0 0 1-.949.114c-.27 0-.537-.026-.8-.079a2.19 2.19 0 0 1-.703-.281 1.671 1.671 0 0 1-.528-.483 1.507 1.507 0 0 1-.228-.747h-2.039c0 .392.093.779.281 1.16.187.381.463.717.826 1.01.358.299.8.539 1.327.721.534.182 1.143.273 1.828.273.616 0 1.175-.071 1.679-.211a4.29 4.29 0 0 0 1.301-.589c.357-.252.633-.554.826-.906.199-.351.299-.738.299-1.16 0-.433-.094-.808-.281-1.125a2.658 2.658 0 0 0-.791-.826c-.34-.222-.75-.41-1.231-.562a12.71 12.71 0 0 0-1.591-.387 7.68 7.68 0 0 1-1.037-.237 2.518 2.518 0 0 1-.633-.29.869.869 0 0 1-.342-.343 1.018 1.018 0 0 1 .017-.897c.076-.146.191-.272.343-.378.152-.117.346-.208.58-.272.24-.07.519-.106.835-.106.346 0 .648.047.905.141.258.088.469.208.633.36.141.129.246.276.317.44.076.158.114.325.114.501h2.1c0-.428-.093-.826-.281-1.195a2.814 2.814 0 0 0-.8-.958 3.957 3.957 0 0 0-1.283-.633 5.688 5.688 0 0 0-1.705-.238 5.4 5.4 0 0 0-1.617.229c-.481.152-.891.36-1.231.624a2.838 2.838 0 0 0-.799.923 2.326 2.326 0 0 0-.273 1.098c0 .405.091.759.273 1.064.181.305.433.568.755.791.329.234.718.434 1.169.598.457.164.961.301 1.512.413.44.082.806.17 1.099.263.293.094.53.194.712.299.17.117.29.24.36.369a.851.851 0 0 1 .114.44ZM60.571 196v-12.797h-2.127l-.017 8.772-4.131-8.772H52.15V196h2.136l.009-8.807L58.453 196h2.118Zm2.215-4.843v.185c0 .697.1 1.339.299 1.925.2.586.49 1.095.87 1.529.375.433.838.773 1.389 1.019.55.247 1.175.37 1.872.37.691 0 1.31-.123 1.854-.37a3.929 3.929 0 0 0 1.389-1.019c.375-.434.662-.943.861-1.529a5.95 5.95 0 0 0 .3-1.925v-.185c0-.691-.1-1.33-.3-1.916a4.533 4.533 0 0 0-.861-1.538 4.016 4.016 0 0 0-1.398-1.019c-.544-.246-1.166-.37-1.863-.37-.697 0-1.318.124-1.863.37a3.948 3.948 0 0 0-1.38 1.019c-.38.434-.67.946-.87 1.538a5.917 5.917 0 0 0-.299 1.916Zm2.1.185v-.185c0-.416.045-.814.133-1.195.093-.381.237-.715.43-1.002.188-.287.425-.516.712-.686.293-.17.639-.254 1.037-.254.405 0 .75.084 1.037.254.293.17.537.399.73.686.181.287.32.621.413 1.002.094.381.14.779.14 1.195v.185c0 .428-.046.832-.14 1.213a3.082 3.082 0 0 1-.413 1.002 2.122 2.122 0 0 1-.72.685 2.07 2.07 0 0 1-1.03.246c-.404 0-.752-.082-1.045-.246a2.123 2.123 0 0 1-.72-.685 3.103 3.103 0 0 1-.431-1.002 5.381 5.381 0 0 1-.132-1.213Zm9.58-4.852v1.749h2.928v6.021h-2.927V196h7.84v-1.74h-2.795v-7.77h-5.045Zm2.734-2.461c0 .223.053.419.158.589a.872.872 0 0 0 .484.343c.205.064.392.079.562.044a.922.922 0 0 0 .44-.22.94.94 0 0 0 .562-.378.917.917 0 0 0 .132-.677.89.89 0 0 0-.343-.615c-.193-.164-.448-.246-.764-.246-.188 0-.358.029-.51.088a1.047 1.047 0 0 0-.633.606 1.202 1.202 0 0 0-.088.466Zm13.808 9.396a.868.868 0 0 1-.106.422 1.07 1.07 0 0 1-.299.342 1.86 1.86 0 0 1-.659.308c-.27.076-.586.114-.949.114-.27 0-.536-.026-.8-.079a2.194 2.194 0 0 1-.703-.281 1.666 1.666 0 0 1-.527-.483 1.506 1.506 0 0 1-.229-.747h-2.039c0 .392.094.779.281 1.16.188.381.463.717.827 1.01.357.299.8.539 1.327.721.533.182 1.142.273 1.828.273.615 0 1.175-.071 1.679-.211a4.294 4.294 0 0 0 1.3-.589 2.69 2.69 0 0 0 .827-.906c.199-.351.298-.738.298-1.16 0-.433-.093-.808-.28-1.125a2.655 2.655 0 0 0-.792-.826c-.34-.222-.75-.41-1.23-.562-.48-.153-1.011-.282-1.591-.387a7.66 7.66 0 0 1-1.037-.237 2.496 2.496 0 0 1-.633-.29.874.874 0 0 1-.343-.343 1.026 1.026 0 0 1-.097-.448c0-.159.039-.308.115-.449.076-.146.19-.272.343-.378.152-.117.345-.208.58-.272.24-.07.518-.106.835-.106.345 0 .647.047.905.141.258.088.469.208.633.36.14.129.246.276.316.44.076.158.114.325.114.501h2.1a2.6 2.6 0 0 0-.28-1.195 2.823 2.823 0 0 0-.8-.958 3.965 3.965 0 0 0-1.283-.633 5.69 5.69 0 0 0-1.705-.238c-.592 0-1.131.077-1.618.229-.48.152-.89.36-1.23.624a2.838 2.838 0 0 0-.8.923 2.33 2.33 0 0 0-.272 1.098c0 .405.09.759.272 1.064.182.305.434.568.756.791.328.234.718.434 1.169.598.457.164.96.301 1.512.413.44.082.805.17 1.098.263.293.094.53.194.712.299.17.117.29.24.36.369a.85.85 0 0 1 .115.44Zm9.035 2.751c.926 0 1.714-.182 2.364-.545.656-.363 1.143-.774 1.459-1.231l-1.125-1.089a2.93 2.93 0 0 1-1.116.87 3.572 3.572 0 0 1-1.459.298c-.38 0-.732-.064-1.055-.193a2.467 2.467 0 0 1-.826-.545 2.55 2.55 0 0 1-.554-.756 3.77 3.77 0 0 1-.298-1.046v-.043h6.591v-.906c0-.679-.09-1.306-.272-1.881a4.183 4.183 0 0 0-.809-1.485 3.663 3.663 0 0 0-1.327-.958c-.527-.234-1.134-.352-1.82-.352a4.365 4.365 0 0 0-3.163 1.336c-.41.428-.733.944-.967 1.547-.234.604-.352 1.278-.352 2.022v.36c0 .65.112 1.257.334 1.819.229.557.551 1.04.967 1.451.416.416.914.741 1.494.975.586.235 1.23.352 1.934.352Zm-.255-8.156c.352 0 .659.061.923.184.269.117.492.275.668.475.182.205.322.445.422.72.099.27.149.542.149.818v.14h-4.473a3.88 3.88 0 0 1 .298-.975c.135-.287.302-.533.501-.738.2-.2.425-.352.677-.457.258-.112.536-.167.835-.167Zm26.464-3.068v-1.749h-9.967v1.749h3.92V196h2.101v-11.048h3.946Zm2.979 14.889c.463 0 .868-.082 1.213-.246a3.24 3.24 0 0 0 .897-.598c.252-.234.46-.492.624-.773.17-.276.31-.536.422-.783l4.825-10.951h-2.329l-2.294 5.836-.396 1.02-.325-1.046-2.364-5.81h-2.312l4.052 9.088-.598 1.134a3.675 3.675 0 0 1-.21.369 4.546 4.546 0 0 1-.282.404 2.18 2.18 0 0 1-.43.405.9.9 0 0 1-.554.184c-.094 0-.217-.006-.369-.017a38.328 38.328 0 0 1-.396-.018l-.29 1.644c.17.041.346.076.528.105.187.035.383.053.588.053Zm9.633-.185h2.101v-4.517a3.234 3.234 0 0 0 .764.624c.241.134.501.237.783.307.287.071.6.106.94.106.598 0 1.128-.123 1.591-.369a3.411 3.411 0 0 0 1.169-1.02c.316-.428.554-.937.712-1.529a7.155 7.155 0 0 0 .246-1.916v-.185c0-.715-.082-1.368-.246-1.96a4.736 4.736 0 0 0-.712-1.538 3.25 3.25 0 0 0-1.178-.993c-.463-.234-.999-.352-1.608-.352-.311 0-.604.036-.879.106a3.037 3.037 0 0 0-.756.281c-.176.094-.34.205-.492.334a3.247 3.247 0 0 0-.422.431l-.079-.976h-1.934v13.166Zm6.205-8.499v.185c0 .422-.041.823-.123 1.204a3.185 3.185 0 0 1-.395 1.002 2.025 2.025 0 0 1-.686.685c-.275.164-.609.246-1.002.246-.24 0-.46-.026-.659-.079a2.307 2.307 0 0 1-.536-.228 1.947 1.947 0 0 1-.404-.352 2.084 2.084 0 0 1-.299-.448v-4.227c.094-.176.202-.334.325-.475.129-.141.278-.258.448-.352.147-.088.314-.155.501-.202.188-.047.39-.07.607-.07.392 0 .729.082 1.01.246.282.164.513.387.695.668.176.281.304.612.387.993.087.375.131.776.131 1.204Zm9.027 5.019c.925 0 1.714-.182 2.364-.545.656-.363 1.143-.774 1.459-1.231l-1.125-1.089a2.93 2.93 0 0 1-1.116.87 3.575 3.575 0 0 1-1.459.298c-.381 0-.733-.064-1.055-.193a2.468 2.468 0 0 1-.826-.545 2.56 2.56 0 0 1-.554-.756 3.776 3.776 0 0 1-.299-1.046v-.043h6.592v-.906c0-.679-.091-1.306-.272-1.881a4.183 4.183 0 0 0-.809-1.485c-.357-.41-.8-.729-1.327-.958-.527-.234-1.134-.352-1.819-.352a4.365 4.365 0 0 0-3.164 1.336 4.612 4.612 0 0 0-.967 1.547c-.235.604-.352 1.278-.352 2.022v.36c0 .65.112 1.257.334 1.819.229.557.551 1.04.967 1.451.416.416.914.741 1.494.975a5.152 5.152 0 0 0 1.934.352Zm-.255-8.156c.351 0 .659.061.923.184.269.117.492.275.668.475.181.205.322.445.422.72.099.27.149.542.149.818v.14h-4.474c.065-.363.164-.688.299-.975.135-.287.302-.533.501-.738.199-.2.425-.352.677-.457.258-.112.536-.167.835-.167ZM330.833 190.261v-1.705h-5.291v-3.604h6.135v-1.749h-8.253V196h8.297v-1.74h-6.179v-3.999h5.291Zm5.73 5.739h2.11v-7.937h3.524v-1.573h-3.524v-.58c0-.334.041-.627.123-.879.088-.252.217-.463.387-.633.181-.181.413-.319.694-.413.287-.093.627-.14 1.019-.14.375 0 .709.023 1.002.07.299.047.566.103.8.167l.167-1.679a19.248 19.248 0 0 0-.518-.096 9.725 9.725 0 0 0-1.117-.159 5.669 5.669 0 0 0-.632-.035c-.616 0-1.172.082-1.67.246a3.55 3.55 0 0 0-1.266.721 3.27 3.27 0 0 0-.817 1.195c-.188.469-.282 1.014-.282 1.635v.58h-2.548v1.573h2.548V196Zm10.811 0h2.109v-7.937h3.525v-1.573h-3.525v-.58c0-.334.041-.627.123-.879.088-.252.217-.463.387-.633.182-.181.413-.319.695-.413.287-.093.626-.14 1.019-.14.375 0 .709.023 1.002.07.299.047.565.103.8.167l.167-1.679a19.31 19.31 0 0 0-.519-.096 9.609 9.609 0 0 0-1.116-.159 5.674 5.674 0 0 0-.633-.035c-.615 0-1.172.082-1.67.246a3.536 3.536 0 0 0-1.265.721 3.272 3.272 0 0 0-.818 1.195c-.187.469-.281 1.014-.281 1.635v.58h-2.549v1.573h2.549V196Zm12.858.176c.926 0 1.714-.182 2.365-.545.656-.363 1.142-.774 1.459-1.231l-1.125-1.089a2.926 2.926 0 0 1-1.117.87 3.572 3.572 0 0 1-1.459.298c-.38 0-.732-.064-1.054-.193a2.458 2.458 0 0 1-.826-.545 2.543 2.543 0 0 1-.554-.756 3.776 3.776 0 0 1-.299-1.046v-.043h6.592v-.906c0-.679-.091-1.306-.273-1.881a4.18 4.18 0 0 0-.808-1.485 3.68 3.68 0 0 0-1.327-.958c-.528-.234-1.134-.352-1.82-.352a4.364 4.364 0 0 0-3.164 1.336c-.41.428-.732.944-.967 1.547-.234.604-.351 1.278-.351 2.022v.36c0 .65.111 1.257.334 1.819.228.557.551 1.04.967 1.451.416.416.914.741 1.494.975.586.235 1.23.352 1.933.352Zm-.254-8.156c.351 0 .659.061.922.184.27.117.493.275.668.475.182.205.323.445.422.72.1.27.15.542.15.818v.14h-4.474c.064-.363.164-.688.299-.975.135-.287.302-.533.501-.738.199-.2.425-.352.677-.457.257-.112.536-.167.835-.167Zm10.766 6.468c-.439 0-.806-.088-1.098-.263a1.954 1.954 0 0 1-.695-.704 2.935 2.935 0 0 1-.378-.975 6.216 6.216 0 0 1-.105-1.143v-.307c0-.381.035-.756.105-1.125.076-.369.205-.698.387-.985a1.99 1.99 0 0 1 .686-.694c.292-.182.659-.272 1.098-.272.287 0 .554.049.8.149.252.1.469.234.65.404.176.17.311.369.405.598.099.228.149.472.149.729h1.978a3.396 3.396 0 0 0-1.108-2.584 3.758 3.758 0 0 0-1.265-.738 4.647 4.647 0 0 0-1.591-.264c-.727 0-1.366.129-1.916.387a3.955 3.955 0 0 0-1.371 1.028c-.37.434-.648.941-.835 1.521a6.13 6.13 0 0 0-.273 1.846v.307c0 .657.094 1.275.281 1.855a4.44 4.44 0 0 0 .835 1.512c.364.433.818.779 1.363 1.037.55.252 1.192.378 1.925.378.527 0 1.028-.085 1.502-.255a4.302 4.302 0 0 0 1.275-.721c.363-.293.65-.642.861-1.046.217-.41.322-.847.317-1.309h-1.978c0 .24-.056.459-.167.659a1.643 1.643 0 0 1-.431.518 2.133 2.133 0 0 1-.65.343 2.49 2.49 0 0 1-.756.114Zm10.89-10.318h-2.11v2.32h-2.302v1.573h2.302v4.676c0 .61.08 1.131.238 1.565.164.433.389.788.676 1.063.288.281.63.489 1.029.624.404.129.846.194 1.327.194.264 0 .527-.015.791-.044.269-.024.527-.059.773-.106s.475-.102.686-.167c.217-.07.401-.152.554-.246l-.229-1.45-.395.088a9.68 9.68 0 0 1-.493.079 7.985 7.985 0 0 1-.562.07 6.07 6.07 0 0 1-.563.027 2.61 2.61 0 0 1-.694-.088 1.32 1.32 0 0 1-.545-.299 1.368 1.368 0 0 1-.36-.554 2.773 2.773 0 0 1-.123-.888v-4.544h3.577v-1.573h-3.577v-2.32Zm7.075 2.32v1.749h2.927v6.021h-2.927V196h7.84v-1.74h-2.795v-7.77h-5.045Zm2.733-2.461c0 .223.053.419.159.589a.87.87 0 0 0 .483.343c.205.064.393.079.562.044a.923.923 0 0 0 .44-.22.937.937 0 0 0 .562-.378.917.917 0 0 0 .132-.677.888.888 0 0 0-.342-.615c-.194-.164-.449-.246-.765-.246a1.4 1.4 0 0 0-.51.088 1.058 1.058 0 0 0-.633.606 1.213 1.213 0 0 0-.088.466ZM402.147 196h1.855l3.727-9.51h-2.18l-2.329 6.9-.141.632-.141-.632-2.355-6.9h-2.18l3.744 9.51Zm12.138.176c.926 0 1.714-.182 2.364-.545.657-.363 1.143-.774 1.459-1.231l-1.125-1.089a2.93 2.93 0 0 1-1.116.87 3.572 3.572 0 0 1-1.459.298c-.381 0-.732-.064-1.054-.193a2.472 2.472 0 0 1-.827-.545 2.54 2.54 0 0 1-.553-.756 3.742 3.742 0 0 1-.299-1.046v-.043h6.592v-.906c0-.679-.091-1.306-.273-1.881a4.197 4.197 0 0 0-.808-1.485c-.358-.41-.8-.729-1.328-.958-.527-.234-1.133-.352-1.819-.352a4.364 4.364 0 0 0-3.164 1.336c-.41.428-.732.944-.967 1.547-.234.604-.351 1.278-.351 2.022v.36c0 .65.111 1.257.334 1.819.228.557.55 1.04.966 1.451.416.416.914.741 1.495.975.586.235 1.23.352 1.933.352Zm-.255-8.156c.352 0 .659.061.923.184.27.117.492.275.668.475.182.205.322.445.422.72.1.27.149.542.149.818v.14h-4.473c.064-.363.164-.688.299-.975.134-.287.301-.533.501-.738.199-.2.424-.352.676-.457.258-.112.536-.167.835-.167Zm24.908 2.241v-1.705h-5.291v-3.604h6.135v-1.749h-8.253V196h8.297v-1.74h-6.179v-3.999h5.291Zm3.358 9.395h2.1v-4.517a3.334 3.334 0 0 0 .765.624c.24.134.501.237.782.307.287.071.601.106.941.106.597 0 1.128-.123 1.591-.369a3.42 3.42 0 0 0 1.169-1.02c.316-.428.553-.937.711-1.529a7.115 7.115 0 0 0 .247-1.916v-.185c0-.715-.082-1.368-.247-1.96a4.734 4.734 0 0 0-.711-1.538 3.259 3.259 0 0 0-1.178-.993c-.463-.234-.999-.352-1.609-.352-.31 0-.603.036-.878.106a3.022 3.022 0 0 0-.756.281 2.83 2.83 0 0 0-.493.334 3.302 3.302 0 0 0-.421.431l-.08-.976h-1.933v13.166Zm6.205-8.499v.185c0 .422-.041.823-.123 1.204a3.163 3.163 0 0 1-.396 1.002 2.013 2.013 0 0 1-.685.685c-.276.164-.609.246-1.002.246-.24 0-.46-.026-.659-.079a2.307 2.307 0 0 1-.536-.228 1.928 1.928 0 0 1-.405-.352 2.16 2.16 0 0 1-.299-.448v-4.227c.094-.176.203-.334.326-.475.129-.141.278-.258.448-.352.146-.088.313-.155.501-.202.187-.047.39-.07.606-.07.393 0 .73.082 1.011.246.281.164.513.387.694.668.176.281.305.612.387.993.088.375.132.776.132 1.204Zm10.802 2.268a.861.861 0 0 1-.106.422 1.063 1.063 0 0 1-.299.342 1.854 1.854 0 0 1-.659.308 3.515 3.515 0 0 1-.949.114c-.269 0-.536-.026-.8-.079a2.2 2.2 0 0 1-.703-.281 1.657 1.657 0 0 1-.527-.483 1.507 1.507 0 0 1-.229-.747h-2.039c0 .392.094.779.281 1.16.188.381.463.717.827 1.01.357.299.799.539 1.327.721.533.182 1.142.273 1.828.273.615 0 1.175-.071 1.679-.211a4.284 4.284 0 0 0 1.3-.589c.358-.252.633-.554.827-.906.199-.351.298-.738.298-1.16 0-.433-.093-.808-.281-1.125a2.647 2.647 0 0 0-.791-.826 5.01 5.01 0 0 0-1.23-.562 12.754 12.754 0 0 0-1.591-.387 7.645 7.645 0 0 1-1.037-.237 2.485 2.485 0 0 1-.633-.29.879.879 0 0 1-.343-.343 1.032 1.032 0 0 1-.097-.448c0-.159.039-.308.115-.449.076-.146.19-.272.342-.378.153-.117.346-.208.581-.272.24-.07.518-.106.835-.106.345 0 .647.047.905.141.258.088.469.208.633.36.14.129.246.276.316.44.076.158.114.325.114.501h2.101c0-.428-.094-.826-.281-1.195a2.837 2.837 0 0 0-.8-.958 3.967 3.967 0 0 0-1.283-.633 5.693 5.693 0 0 0-1.705-.238c-.592 0-1.131.077-1.618.229-.48.152-.89.36-1.23.624a2.84 2.84 0 0 0-.8.923 2.325 2.325 0 0 0-.272 1.098c0 .405.09.759.272 1.064.182.305.434.568.756.791a4.87 4.87 0 0 0 1.169.598c.457.164.961.301 1.512.413.439.082.805.17 1.098.263.293.094.53.194.712.299.17.117.29.24.36.369a.842.842 0 0 1 .115.44Zm5.08-6.935v1.749h2.927v6.021h-2.927V196h7.84v-1.74h-2.795v-7.77h-5.045Zm2.733-2.461c0 .223.053.419.158.589a.875.875 0 0 0 .484.343c.205.064.392.079.562.044a.923.923 0 0 0 .44-.22.94.94 0 0 0 .562-.378.917.917 0 0 0 .132-.677.886.886 0 0 0-.343-.615c-.193-.164-.448-.246-.764-.246a1.4 1.4 0 0 0-.51.088 1.058 1.058 0 0 0-.633.606 1.213 1.213 0 0 0-.088.466Zm7.998-1.529v1.749h3.006v10.011h-3.006V196h8.007v-1.74h-2.883V182.5h-5.124Zm10.02 8.657v.185c0 .697.099 1.339.299 1.925.199.586.489 1.095.87 1.529.375.433.838.773 1.388 1.019.551.247 1.175.37 1.872.37.692 0 1.31-.123 1.855-.37a3.928 3.928 0 0 0 1.389-1.019c.375-.434.662-.943.861-1.529a5.955 5.955 0 0 0 .299-1.925v-.185c0-.691-.1-1.33-.299-1.916a4.529 4.529 0 0 0-.861-1.538 4.017 4.017 0 0 0-1.398-1.019c-.545-.246-1.166-.37-1.863-.37-.697 0-1.318.124-1.863.37a3.948 3.948 0 0 0-1.38 1.019 4.449 4.449 0 0 0-.87 1.538 5.898 5.898 0 0 0-.299 1.916Zm2.1.185v-.185c0-.416.044-.814.132-1.195.094-.381.238-.715.431-1.002a2.15 2.15 0 0 1 .712-.686c.293-.17.638-.254 1.037-.254.404 0 .75.084 1.037.254.293.17.536.399.729.686.182.287.32.621.414 1.002.093.381.14.779.14 1.195v.185c0 .428-.047.832-.14 1.213a3.074 3.074 0 0 1-.414 1.002 2.115 2.115 0 0 1-.72.685 2.072 2.072 0 0 1-1.029.246c-.404 0-.752-.082-1.045-.246a2.118 2.118 0 0 1-.721-.685 3.117 3.117 0 0 1-.431-1.002 5.376 5.376 0 0 1-.132-1.213Zm9.097 4.658h2.101v-6.785c.093-.158.202-.305.325-.44a2.167 2.167 0 0 1 1.002-.624c.222-.07.463-.105.72-.105.311 0 .586.035.827.105.24.065.445.176.615.334.17.159.299.369.387.633.088.264.131.592.131.985V196h2.101v-5.933c0-.668-.079-1.236-.237-1.705-.158-.474-.381-.864-.668-1.169a2.569 2.569 0 0 0-1.037-.668 4.065 4.065 0 0 0-1.336-.211 3.468 3.468 0 0 0-1.978.607 3.88 3.88 0 0 0-.923.923l-.132-1.354h-1.898V196ZM54.577 242.122h2.171c.645 0 1.236-.094 1.775-.281a4.14 4.14 0 0 0 1.407-.8c.392-.34.697-.747.914-1.222.216-.48.325-1.016.325-1.608 0-.615-.108-1.169-.325-1.661a3.573 3.573 0 0 0-.914-1.257 4.14 4.14 0 0 0-1.407-.8 5.545 5.545 0 0 0-1.775-.29h-4.28V247h2.11v-4.878Zm0-1.723v-4.473h2.171c.358.006.677.064.958.176.287.111.53.269.73.474.199.205.348.448.448.73.105.275.158.583.158.923a2.3 2.3 0 0 1-.158.861 1.85 1.85 0 0 1-.449.685c-.199.194-.442.346-.729.457-.281.106-.6.162-.958.167h-2.17ZM69.247 247h2.144v-.149a3.623 3.623 0 0 1-.273-.879 6.983 6.983 0 0 1-.088-1.16v-4.228c0-.539-.1-1.014-.299-1.424a2.79 2.79 0 0 0-.826-1.028 3.634 3.634 0 0 0-1.257-.607 5.538 5.538 0 0 0-1.555-.211c-.621 0-1.175.082-1.661.247-.48.158-.885.375-1.213.65a2.76 2.76 0 0 0-.774.932 2.51 2.51 0 0 0-.272 1.098h2.11c0-.181.031-.351.096-.51.07-.164.176-.301.316-.413a1.53 1.53 0 0 1 .528-.29c.216-.07.468-.105.755-.105.317 0 .595.041.836.123.246.076.454.187.624.334.158.146.278.319.36.518.088.2.132.422.132.668v.642H67.4c-.685 0-1.3.064-1.845.193-.54.129-.994.317-1.363.563a2.676 2.676 0 0 0-.914 1.002c-.205.398-.307.858-.307 1.38 0 .404.079.782.237 1.133.164.346.393.642.686.888a3.22 3.22 0 0 0 1.037.598c.41.14.861.211 1.353.211.305 0 .589-.03.853-.088.263-.059.51-.141.738-.246.228-.1.434-.217.615-.352.188-.14.355-.287.501-.439.03.181.062.357.097.527.04.164.094.305.158.422Zm-2.558-1.512c-.27 0-.504-.032-.704-.096a1.527 1.527 0 0 1-.5-.282 1.146 1.146 0 0 1-.308-.422 1.403 1.403 0 0 1-.106-.544c0-.235.041-.446.123-.633.088-.188.22-.349.396-.484.2-.158.466-.278.8-.36.334-.088.73-.132 1.186-.132h1.354v1.758a1.698 1.698 0 0 1-.326.439c-.14.141-.307.267-.5.378a2.97 2.97 0 0 1-.65.273c-.235.07-.49.105-.765.105Zm13.869-8.174c-.657 0-1.257.153-1.802.457a4.36 4.36 0 0 0-1.389 1.257l-.009-.219-.088-1.319h-1.968V247h2.1v-5.871c.112-.281.25-.53.413-.747a2.08 2.08 0 0 1 .598-.536c.217-.147.466-.255.747-.325.281-.071.598-.106.95-.106.31 0 .62.018.931.053.316.035.636.088.958.158l.299-2.074a4.11 4.11 0 0 0-.756-.167 6.693 6.693 0 0 0-.984-.071Zm8.455-2.144h-2.11v2.32h-2.302v1.573h2.302v4.676c0 .61.08 1.131.238 1.565.164.433.39.788.676 1.063.288.281.63.489 1.029.624.404.129.846.194 1.327.194.263 0 .527-.015.79-.044.27-.024.528-.059.774-.106s.475-.102.686-.167c.217-.07.401-.152.554-.246l-.229-1.45-.395.088a9.568 9.568 0 0 1-.493.079 8.03 8.03 0 0 1-.562.07c-.194.018-.381.027-.563.027-.252 0-.483-.03-.694-.088a1.316 1.316 0 0 1-.545-.299 1.365 1.365 0 0 1-.36-.554 2.773 2.773 0 0 1-.123-.888v-4.544h3.577v-1.573h-3.577v-2.32Zm7.075 2.32v1.749h2.927v6.021h-2.927V247h7.84v-1.74h-2.795v-7.77h-5.045Zm2.733-2.461c0 .223.053.419.159.589a.872.872 0 0 0 .483.343c.205.064.393.079.562.044a.923.923 0 0 0 .44-.22.94.94 0 0 0 .562-.378.917.917 0 0 0 .132-.677.886.886 0 0 0-.343-.615c-.193-.164-.448-.246-.764-.246-.188 0-.358.029-.51.088a1.047 1.047 0 0 0-.633.606 1.202 1.202 0 0 0-.088.466Zm11.813.141h-2.11v2.32h-2.302v1.573h2.302v4.676c0 .61.08 1.131.238 1.565.164.433.389.788.676 1.063.288.281.63.489 1.029.624.404.129.846.194 1.327.194.264 0 .527-.015.791-.044.269-.024.527-.059.773-.106s.475-.102.686-.167c.217-.07.401-.152.554-.246l-.229-1.45-.395.088a9.68 9.68 0 0 1-.493.079 7.985 7.985 0 0 1-.562.07 6.07 6.07 0 0 1-.563.027 2.61 2.61 0 0 1-.694-.088 1.32 1.32 0 0 1-.545-.299 1.368 1.368 0 0 1-.36-.554 2.773 2.773 0 0 1-.123-.888v-4.544h3.577v-1.573h-3.577v-2.32Zm7.075 2.32v1.749h2.927v6.021h-2.927V247h7.84v-1.74h-2.795v-7.77h-5.045Zm2.733-2.461c0 .223.053.419.159.589a.87.87 0 0 0 .483.343c.205.064.393.079.562.044a.923.923 0 0 0 .44-.22.937.937 0 0 0 .562-.378.917.917 0 0 0 .132-.677.888.888 0 0 0-.342-.615c-.194-.164-.449-.246-.765-.246a1.4 1.4 0 0 0-.51.088 1.058 1.058 0 0 0-.633.606 1.213 1.213 0 0 0-.088.466Zm7.207 7.128v.185c0 .697.1 1.339.299 1.925a4.48 4.48 0 0 0 .87 1.529c.375.433.838.773 1.389 1.019.551.247 1.175.37 1.872.37.692 0 1.31-.123 1.855-.37a3.933 3.933 0 0 0 1.388-1.019c.375-.434.662-.943.862-1.529a5.955 5.955 0 0 0 .298-1.925v-.185c0-.691-.099-1.33-.298-1.916a4.548 4.548 0 0 0-.862-1.538 4.013 4.013 0 0 0-1.397-1.019c-.545-.246-1.166-.37-1.863-.37-.698 0-1.319.124-1.864.37a3.948 3.948 0 0 0-1.38 1.019c-.38.434-.671.946-.87 1.538a5.925 5.925 0 0 0-.299 1.916Zm2.101.185v-.185c0-.416.044-.814.132-1.195.094-.381.237-.715.43-1.002.188-.287.425-.516.712-.686.293-.17.639-.254 1.038-.254.404 0 .75.084 1.037.254.293.17.536.399.729.686.182.287.319.621.413 1.002.094.381.141.779.141 1.195v.185c0 .428-.047.832-.141 1.213a3.073 3.073 0 0 1-.413 1.002 2.118 2.118 0 0 1-.721.685 2.069 2.069 0 0 1-1.028.246c-.404 0-.753-.082-1.046-.246a2.127 2.127 0 0 1-.721-.685 3.116 3.116 0 0 1-.43-1.002 5.376 5.376 0 0 1-.132-1.213Zm9.097 4.658h2.1v-6.785c.094-.158.202-.305.325-.44a2.173 2.173 0 0 1 1.002-.624c.223-.07.463-.105.721-.105.311 0 .586.035.826.105.241.065.446.176.616.334a1.5 1.5 0 0 1 .386.633c.088.264.132.592.132.985V247h2.101v-5.933c0-.668-.079-1.236-.238-1.705-.158-.474-.38-.864-.668-1.169a2.562 2.562 0 0 0-1.037-.668 4.056 4.056 0 0 0-1.336-.211 3.462 3.462 0 0 0-2.478 1.029 3.802 3.802 0 0 0-.422.501l-.132-1.354h-1.898V247Zm28.239-3.296c0 .281-.062.53-.185.747a1.624 1.624 0 0 1-.474.545 2.152 2.152 0 0 1-.73.343 3.356 3.356 0 0 1-.896.114c-.381 0-.733-.047-1.055-.141a2.307 2.307 0 0 1-.826-.43 2.01 2.01 0 0 1-.571-.712 2.969 2.969 0 0 1-.246-1.028h-2.11c.006.615.129 1.16.369 1.634.246.475.577.888.993 1.24.452.375.982.662 1.591.861a6.316 6.316 0 0 0 3.542.07 4.375 4.375 0 0 0 1.407-.676c.398-.288.714-.648.949-1.082.24-.433.36-.934.36-1.502 0-.616-.138-1.158-.413-1.626a3.985 3.985 0 0 0-1.081-1.222 5.992 5.992 0 0 0-1.195-.686 9.684 9.684 0 0 0-1.319-.483c-.357-.106-.7-.22-1.028-.343a4.493 4.493 0 0 1-.861-.431 2.102 2.102 0 0 1-.589-.571 1.423 1.423 0 0 1-.229-.773c0-.276.056-.525.167-.747.112-.223.267-.413.466-.572.199-.152.434-.269.703-.351.276-.088.574-.132.897-.132.369 0 .694.056.975.167.287.105.531.252.73.439a2 2 0 0 1 .448.695c.111.263.182.556.211.879h2.092c0-.58-.117-1.108-.352-1.582a3.76 3.76 0 0 0-.94-1.24 4.362 4.362 0 0 0-1.407-.791 5.047 5.047 0 0 0-1.731-.29c-.586 0-1.145.082-1.679.246-.527.159-.99.39-1.388.695-.399.31-.715.685-.95 1.125a3.04 3.04 0 0 0-.351 1.468c0 .503.099.958.299 1.362.205.398.486.756.843 1.072.358.311.789.592 1.292.844.51.246 1.067.454 1.67.624a7.91 7.91 0 0 1 1.064.378c.322.135.6.287.835.457.222.181.395.387.518.615.123.229.185.492.185.791Zm8.631 3.472c.926 0 1.714-.182 2.364-.545.656-.363 1.143-.774 1.459-1.231l-1.125-1.089a2.93 2.93 0 0 1-1.116.87 3.575 3.575 0 0 1-1.459.298c-.381 0-.733-.064-1.055-.193a2.468 2.468 0 0 1-.826-.545 2.56 2.56 0 0 1-.554-.756 3.811 3.811 0 0 1-.299-1.046v-.043h6.592v-.906c0-.679-.091-1.306-.272-1.881a4.183 4.183 0 0 0-.809-1.485c-.357-.41-.8-.729-1.327-.958-.527-.234-1.134-.352-1.819-.352a4.365 4.365 0 0 0-3.164 1.336 4.612 4.612 0 0 0-.967 1.547c-.235.604-.352 1.278-.352 2.022v.36c0 .65.112 1.257.334 1.819.229.557.551 1.04.967 1.451.416.416.914.741 1.494.975a5.152 5.152 0 0 0 1.934.352Zm-.255-8.156c.351 0 .659.061.923.184.269.117.492.275.668.475.181.205.322.445.422.72.099.27.149.542.149.818v.14h-4.474c.065-.363.164-.688.299-.975.135-.287.302-.533.501-.738.199-.2.425-.352.677-.457.258-.112.536-.167.835-.167Zm7.031-5.52v1.749h3.006v10.011h-3.006V247h8.007v-1.74h-2.883V233.5h-5.124Zm14.845 13.676c.926 0 1.714-.182 2.364-.545.656-.363 1.143-.774 1.459-1.231l-1.125-1.089a2.93 2.93 0 0 1-1.116.87 3.575 3.575 0 0 1-1.459.298c-.381 0-.732-.064-1.055-.193a2.468 2.468 0 0 1-.826-.545 2.56 2.56 0 0 1-.554-.756 3.778 3.778 0 0 1-.298-1.046v-.043h6.591v-.906c0-.679-.09-1.306-.272-1.881a4.183 4.183 0 0 0-.809-1.485c-.357-.41-.8-.729-1.327-.958-.527-.234-1.134-.352-1.819-.352a4.36 4.36 0 0 0-3.164 1.336c-.41.428-.733.944-.967 1.547-.234.604-.352 1.278-.352 2.022v.36c0 .65.112 1.257.334 1.819.229.557.551 1.04.967 1.451.416.416.914.741 1.494.975a5.152 5.152 0 0 0 1.934.352Zm-.255-8.156c.352 0 .659.061.923.184.269.117.492.275.668.475.181.205.322.445.422.72.099.27.149.542.149.818v.14h-4.474a3.94 3.94 0 0 1 .299-.975c.135-.287.302-.533.501-.738.2-.2.425-.352.677-.457.258-.112.536-.167.835-.167Zm10.767 6.468c-.44 0-.806-.088-1.099-.263a1.951 1.951 0 0 1-.694-.704 2.935 2.935 0 0 1-.378-.975 6.13 6.13 0 0 1-.106-1.143v-.307c0-.381.035-.756.106-1.125.076-.369.205-.698.386-.985.17-.287.399-.518.686-.694.293-.182.659-.272 1.099-.272a2.1 2.1 0 0 1 .799.149c.252.1.469.234.651.404.176.17.31.369.404.598.1.228.15.472.15.729h1.977a3.381 3.381 0 0 0-.29-1.45 3.301 3.301 0 0 0-.817-1.134 3.772 3.772 0 0 0-1.266-.738 4.643 4.643 0 0 0-1.591-.264c-.726 0-1.365.129-1.916.387a3.955 3.955 0 0 0-1.371 1.028 4.425 4.425 0 0 0-.835 1.521 6.13 6.13 0 0 0-.272 1.846v.307c0 .657.093 1.275.281 1.855.187.574.466 1.078.835 1.512a3.96 3.96 0 0 0 1.362 1.037c.551.252 1.193.378 1.925.378a4.309 4.309 0 0 0 2.777-.976c.364-.293.651-.642.862-1.046.216-.41.322-.847.316-1.309h-1.977c0 .24-.056.459-.167.659a1.657 1.657 0 0 1-.431.518 2.138 2.138 0 0 1-.651.343c-.24.076-.492.114-.755.114Zm10.889-10.318h-2.109v2.32h-2.303v1.573h2.303v4.676c0 .61.079 1.131.237 1.565.164.433.39.788.677 1.063.287.281.63.489 1.028.624a4.35 4.35 0 0 0 1.327.194c.264 0 .528-.015.791-.044.27-.024.528-.059.774-.106s.474-.102.685-.167c.217-.07.402-.152.554-.246l-.228-1.45-.396.088a9.459 9.459 0 0 1-.492.079 8.014 8.014 0 0 1-.563.07c-.193.018-.38.027-.562.027a2.61 2.61 0 0 1-.694-.088 1.314 1.314 0 0 1-.906-.853 2.773 2.773 0 0 1-.123-.888v-4.544h3.577v-1.573h-3.577v-2.32Zm7.075 2.32v1.749h2.927v6.021h-2.927V247h7.84v-1.74h-2.795v-7.77h-5.045Zm2.734-2.461c0 .223.053.419.158.589a.873.873 0 0 0 .483.343c.206.064.393.079.563.044a.92.92 0 0 0 .439-.22.94.94 0 0 0 .563-.378.917.917 0 0 0 .132-.677.893.893 0 0 0-.343-.615c-.193-.164-.448-.246-.765-.246-.187 0-.357.029-.509.088a1.062 1.062 0 0 0-.378.229 1.033 1.033 0 0 0-.255.377 1.194 1.194 0 0 0-.088.466Zm7.207 7.128v.185c0 .697.099 1.339.299 1.925.199.586.489 1.095.87 1.529.375.433.838.773 1.388 1.019.551.247 1.175.37 1.873.37.691 0 1.309-.123 1.854-.37a3.928 3.928 0 0 0 1.389-1.019c.375-.434.662-.943.861-1.529a5.955 5.955 0 0 0 .299-1.925v-.185c0-.691-.1-1.33-.299-1.916a4.529 4.529 0 0 0-.861-1.538 4.017 4.017 0 0 0-1.398-1.019c-.545-.246-1.166-.37-1.863-.37-.697 0-1.318.124-1.863.37a3.948 3.948 0 0 0-1.38 1.019 4.449 4.449 0 0 0-.87 1.538 5.898 5.898 0 0 0-.299 1.916Zm2.1.185v-.185c0-.416.044-.814.132-1.195.094-.381.238-.715.431-1.002a2.15 2.15 0 0 1 .712-.686c.293-.17.639-.254 1.037-.254.404 0 .75.084 1.037.254.293.17.536.399.73.686.181.287.319.621.413 1.002.093.381.14.779.14 1.195v.185c0 .428-.047.832-.14 1.213a3.095 3.095 0 0 1-.413 1.002 2.127 2.127 0 0 1-.721.685 2.071 2.071 0 0 1-1.028.246c-.405 0-.753-.082-1.046-.246a2.118 2.118 0 0 1-.721-.685 3.117 3.117 0 0 1-.431-1.002 5.376 5.376 0 0 1-.132-1.213Zm9.097 4.658h2.101v-6.785c.093-.158.202-.305.325-.44a2.167 2.167 0 0 1 1.002-.624c.223-.07.463-.105.721-.105.31 0 .586.035.826.105.24.065.445.176.615.334.17.159.299.369.387.633.088.264.132.592.132.985V247h2.1v-5.933c0-.668-.079-1.236-.237-1.705-.158-.474-.381-.864-.668-1.169a2.569 2.569 0 0 0-1.037-.668 4.065 4.065 0 0 0-1.336-.211 3.468 3.468 0 0 0-1.978.607 3.88 3.88 0 0 0-.923.923l-.131-1.354h-1.899V247ZM332.389 235.952v-1.749h-9.967v1.749h3.92V247h2.1v-11.048h3.947Zm3.884 2.892V233.5h-2.1V247h2.1v-6.882c.1-.152.214-.29.343-.413.135-.123.279-.228.431-.316.182-.112.381-.197.598-.255a2.73 2.73 0 0 1 .703-.088c.316 0 .594.044.835.132.246.082.454.211.624.386.164.165.287.378.369.642.088.264.132.571.132.923V247h2.1v-5.854c0-.673-.082-1.25-.246-1.731-.158-.486-.384-.885-.677-1.195a2.647 2.647 0 0 0-1.063-.686 4.036 4.036 0 0 0-1.362-.22c-.358 0-.698.053-1.02.159a2.969 2.969 0 0 0-.87.439 3.493 3.493 0 0 0-.897.932Zm15.285-1.53c-.657 0-1.257.153-1.802.457a4.366 4.366 0 0 0-1.389 1.257l-.009-.219-.087-1.319h-1.969V247h2.1v-5.871c.112-.281.249-.53.413-.747.164-.217.364-.396.598-.536.217-.147.466-.255.747-.325.281-.071.598-.106.949-.106.311 0 .621.018.932.053.316.035.636.088.958.158l.299-2.074a4.122 4.122 0 0 0-.756-.167 6.692 6.692 0 0 0-.984-.071Zm8.674 9.862c.926 0 1.714-.182 2.365-.545.656-.363 1.142-.774 1.459-1.231l-1.125-1.089a2.926 2.926 0 0 1-1.117.87 3.572 3.572 0 0 1-1.459.298c-.38 0-.732-.064-1.054-.193a2.458 2.458 0 0 1-.826-.545 2.543 2.543 0 0 1-.554-.756 3.776 3.776 0 0 1-.299-1.046v-.043h6.592v-.906c0-.679-.091-1.306-.273-1.881a4.18 4.18 0 0 0-.808-1.485 3.68 3.68 0 0 0-1.327-.958c-.528-.234-1.134-.352-1.82-.352a4.364 4.364 0 0 0-3.164 1.336c-.41.428-.732.944-.967 1.547-.234.604-.351 1.278-.351 2.022v.36c0 .65.111 1.257.334 1.819.228.557.551 1.04.967 1.451.416.416.914.741 1.494.975.586.235 1.23.352 1.933.352Zm-.254-8.156c.351 0 .659.061.922.184.27.117.493.275.668.475.182.205.323.445.422.72.1.27.15.542.15.818v.14h-4.474c.064-.363.164-.688.299-.975.135-.287.302-.533.501-.738.199-.2.425-.352.677-.457.257-.112.536-.167.835-.167Zm12.84 5.405a.872.872 0 0 1-.105.422 1.075 1.075 0 0 1-.299.342 1.862 1.862 0 0 1-.659.308 3.52 3.52 0 0 1-.949.114c-.27 0-.536-.026-.8-.079a2.19 2.19 0 0 1-.703-.281 1.671 1.671 0 0 1-.528-.483 1.507 1.507 0 0 1-.228-.747h-2.039c0 .392.094.779.281 1.16.188.381.463.717.826 1.01.358.299.8.539 1.327.721.534.182 1.143.273 1.829.273a6.26 6.26 0 0 0 1.678-.211 4.29 4.29 0 0 0 1.301-.589c.357-.252.633-.554.826-.906.199-.351.299-.738.299-1.16 0-.433-.094-.808-.281-1.125a2.658 2.658 0 0 0-.791-.826c-.34-.222-.75-.41-1.231-.562-.48-.153-1.01-.282-1.591-.387a7.68 7.68 0 0 1-1.037-.237 2.492 2.492 0 0 1-.632-.29.865.865 0 0 1-.343-.343 1.018 1.018 0 0 1 .017-.897c.076-.146.191-.272.343-.378.152-.117.346-.208.58-.272.24-.07.519-.106.835-.106.346 0 .648.047.905.141.258.088.469.208.633.36.141.129.246.276.317.44.076.158.114.325.114.501h2.1c0-.428-.093-.826-.281-1.195a2.814 2.814 0 0 0-.8-.958 3.957 3.957 0 0 0-1.283-.633 5.688 5.688 0 0 0-1.705-.238 5.4 5.4 0 0 0-1.617.229c-.481.152-.891.36-1.231.624a2.838 2.838 0 0 0-.799.923 2.326 2.326 0 0 0-.273 1.098c0 .405.091.759.273 1.064.181.305.433.568.756.791.328.234.717.434 1.168.598.458.164.961.301 1.512.413.44.082.806.17 1.099.263.293.094.53.194.712.299.17.117.29.24.36.369a.851.851 0 0 1 .114.44Zm6.698-5.581V233.5h-2.101V247h2.101v-6.882c.099-.152.213-.29.342-.413.135-.123.279-.228.431-.316.182-.112.381-.197.598-.255a2.73 2.73 0 0 1 .703-.088c.316 0 .595.044.835.132.246.082.454.211.624.386.164.165.287.378.369.642.088.264.132.571.132.923V247h2.1v-5.854c0-.673-.082-1.25-.246-1.731-.158-.486-.383-.885-.676-1.195a2.65 2.65 0 0 0-1.064-.686 4.036 4.036 0 0 0-1.362-.22c-.358 0-.698.053-1.02.159a2.969 2.969 0 0 0-.87.439c-.17.117-.331.255-.483.413-.153.158-.29.331-.413.519Zm8.323 3.313v.185c0 .697.099 1.339.299 1.925.199.586.489 1.095.87 1.529.375.433.838.773 1.388 1.019.551.247 1.175.37 1.873.37.691 0 1.309-.123 1.854-.37a3.928 3.928 0 0 0 1.389-1.019c.375-.434.662-.943.861-1.529a5.955 5.955 0 0 0 .299-1.925v-.185c0-.691-.1-1.33-.299-1.916a4.529 4.529 0 0 0-.861-1.538 4.017 4.017 0 0 0-1.398-1.019c-.545-.246-1.166-.37-1.863-.37-.697 0-1.318.124-1.863.37a3.948 3.948 0 0 0-1.38 1.019 4.449 4.449 0 0 0-.87 1.538 5.898 5.898 0 0 0-.299 1.916Zm2.1.185v-.185c0-.416.044-.814.132-1.195.094-.381.238-.715.431-1.002a2.15 2.15 0 0 1 .712-.686c.293-.17.639-.254 1.037-.254.404 0 .75.084 1.037.254.293.17.536.399.73.686.181.287.319.621.413 1.002.093.381.14.779.14 1.195v.185c0 .428-.047.832-.14 1.213a3.095 3.095 0 0 1-.413 1.002 2.127 2.127 0 0 1-.721.685 2.071 2.071 0 0 1-1.028.246c-.405 0-.753-.082-1.046-.246a2.118 2.118 0 0 1-.721-.685 3.117 3.117 0 0 1-.431-1.002 5.376 5.376 0 0 1-.132-1.213Zm9.501-8.842v1.749h3.006v10.011h-3.006V247h8.007v-1.74h-2.883V233.5h-5.124Zm10.125 8.675v.184c0 .686.088 1.325.264 1.916.176.586.425 1.093.747 1.521.322.433.715.773 1.178 1.019.463.241.984.361 1.564.361.551 0 1.037-.1 1.459-.299a3.188 3.188 0 0 0 1.09-.87l.097.993h1.907v-13.5h-2.1v4.878a3.173 3.173 0 0 0-1.055-.782c-.393-.188-.853-.282-1.38-.282-.586 0-1.113.121-1.582.361a3.352 3.352 0 0 0-1.178.993c-.328.428-.58.94-.756 1.538a7.12 7.12 0 0 0-.255 1.969Zm2.101.184v-.184c0-.428.041-.829.123-1.204.082-.381.214-.715.396-1.002.169-.287.392-.513.668-.677.281-.164.618-.246 1.01-.246.469 0 .856.105 1.16.316.311.205.56.484.748.835v4.087a2.3 2.3 0 0 1-.748.853c-.31.205-.703.307-1.177.307-.387 0-.718-.079-.993-.237a1.967 1.967 0 0 1-.677-.677 2.97 2.97 0 0 1-.387-.975 5.591 5.591 0 0 1-.123-1.196Zm19.415-.202v.185c0 .697.1 1.339.299 1.925.199.586.489 1.095.87 1.529.375.433.838.773 1.389 1.019.55.247 1.174.37 1.872.37.691 0 1.309-.123 1.854-.37a3.928 3.928 0 0 0 1.389-1.019c.375-.434.662-.943.861-1.529a5.955 5.955 0 0 0 .299-1.925v-.185c0-.691-.1-1.33-.299-1.916a4.529 4.529 0 0 0-.861-1.538 4.017 4.017 0 0 0-1.398-1.019c-.544-.246-1.166-.37-1.863-.37-.697 0-1.318.124-1.863.37a3.948 3.948 0 0 0-1.38 1.019 4.449 4.449 0 0 0-.87 1.538 5.925 5.925 0 0 0-.299 1.916Zm2.101.185v-.185c0-.416.044-.814.131-1.195.094-.381.238-.715.431-1.002.188-.287.425-.516.712-.686.293-.17.639-.254 1.037-.254.404 0 .75.084 1.037.254.293.17.536.399.73.686.181.287.319.621.413 1.002.094.381.14.779.14 1.195v.185c0 .428-.046.832-.14 1.213a3.095 3.095 0 0 1-.413 1.002 2.127 2.127 0 0 1-.721.685 2.071 2.071 0 0 1-1.028.246c-.405 0-.753-.082-1.046-.246a2.127 2.127 0 0 1-.721-.685 3.117 3.117 0 0 1-.431-1.002 5.434 5.434 0 0 1-.131-1.213Zm9.096 4.658h2.101v-6.785c.094-.158.202-.305.325-.44a2.14 2.14 0 0 1 1.002-.624c.223-.07.463-.105.721-.105.31 0 .586.035.826.105.24.065.445.176.615.334.17.159.299.369.387.633.088.264.132.592.132.985V247h2.1v-5.933c0-.668-.079-1.236-.237-1.705-.158-.474-.381-.864-.668-1.169a2.569 2.569 0 0 0-1.037-.668 4.06 4.06 0 0 0-1.336-.211 3.468 3.468 0 0 0-1.978.607 3.864 3.864 0 0 0-.922.923l-.132-1.354h-1.899V247Zm24.618 0h2.057l3.938-12.797h-2.303l-2.452 8.851-.22.773-.211-.765-2.434-8.859h-2.312L466.896 247Zm13.887 0h2.145v-.149a3.657 3.657 0 0 1-.273-.879 7.048 7.048 0 0 1-.088-1.16v-4.228c0-.539-.099-1.014-.298-1.424a2.795 2.795 0 0 0-.827-1.028 3.628 3.628 0 0 0-1.256-.607 5.542 5.542 0 0 0-1.556-.211c-.621 0-1.175.082-1.661.247a3.626 3.626 0 0 0-1.213.65c-.34.269-.598.58-.774.932a2.523 2.523 0 0 0-.272 1.098h2.109c0-.181.033-.351.097-.51a1.05 1.05 0 0 1 .316-.413c.141-.123.317-.219.528-.29.217-.07.469-.105.756-.105.316 0 .594.041.835.123.246.076.454.187.624.334.158.146.278.319.36.518.088.2.132.422.132.668v.642h-1.529c-.686 0-1.301.064-1.846.193-.539.129-.993.317-1.363.563a2.68 2.68 0 0 0-.914 1.002c-.205.398-.307.858-.307 1.38 0 .404.079.782.237 1.133.164.346.393.642.686.888.287.252.632.451 1.037.598.41.14.861.211 1.353.211.305 0 .589-.03.853-.088.264-.059.51-.141.738-.246.229-.1.434-.217.615-.352.188-.14.355-.287.501-.439.03.181.062.357.097.527.041.164.094.305.158.422Zm-2.557-1.512c-.27 0-.504-.032-.704-.096a1.534 1.534 0 0 1-.501-.282 1.15 1.15 0 0 1-.307-.422 1.41 1.41 0 0 1-.106-.544c0-.235.041-.446.123-.633a1.3 1.3 0 0 1 .396-.484c.199-.158.466-.278.8-.36a4.692 4.692 0 0 1 1.186-.132h1.354v1.758a1.706 1.706 0 0 1-.325.439 2.384 2.384 0 0 1-.501.378 2.996 2.996 0 0 1-.651.273c-.234.07-.489.105-.764.105Zm7.699-11.988v1.749h3.006v10.011h-3.006V247h8.007v-1.74h-2.883V233.5h-5.124Zm16.637 13.5h1.908v-9.51h-2.11v6.733a2.393 2.393 0 0 1-.298.483 2.003 2.003 0 0 1-.405.369 2.385 2.385 0 0 1-.633.281 3.13 3.13 0 0 1-.817.097c-.293 0-.548-.038-.765-.114a1.146 1.146 0 0 1-.536-.387 1.697 1.697 0 0 1-.307-.703 5.319 5.319 0 0 1-.097-1.107v-5.652h-2.101v5.634c0 .715.079 1.33.238 1.846.158.509.381.928.668 1.257a2.7 2.7 0 0 0 1.046.729c.41.152.861.229 1.353.229.574 0 1.093-.132 1.556-.396a3.613 3.613 0 0 0 1.177-1.116l.123 1.327Zm9.018.176c.926 0 1.714-.182 2.364-.545.657-.363 1.143-.774 1.459-1.231l-1.125-1.089a2.93 2.93 0 0 1-1.116.87 3.572 3.572 0 0 1-1.459.298c-.381 0-.732-.064-1.055-.193a2.478 2.478 0 0 1-.826-.545 2.54 2.54 0 0 1-.553-.756 3.742 3.742 0 0 1-.299-1.046v-.043h6.592v-.906c0-.679-.091-1.306-.273-1.881a4.183 4.183 0 0 0-.809-1.485 3.663 3.663 0 0 0-1.327-.958c-.527-.234-1.133-.352-1.819-.352a4.364 4.364 0 0 0-3.164 1.336c-.41.428-.732.944-.967 1.547-.234.604-.351 1.278-.351 2.022v.36c0 .65.111 1.257.334 1.819.228.557.55 1.04.966 1.451.416.416.914.741 1.494.975a5.152 5.152 0 0 0 1.934.352Zm-.255-8.156c.352 0 .659.061.923.184.27.117.492.275.668.475.182.205.322.445.422.72.1.27.149.542.149.818v.14h-4.473c.064-.363.164-.688.298-.975.135-.287.302-.533.501-.738.2-.2.425-.352.677-.457.258-.112.536-.167.835-.167ZM54.815 285.203h-2.62V298h1.978v-4.342l-.114-5.502 1.784 5.898h1.098l1.97-6.109-.124 5.713V298h1.986v-12.797h-2.628l-1.748 5.476-1.582-5.476ZM69.246 298h2.145v-.149a3.623 3.623 0 0 1-.273-.879 6.983 6.983 0 0 1-.088-1.16v-4.228c0-.539-.1-1.014-.299-1.424a2.79 2.79 0 0 0-.826-1.028 3.634 3.634 0 0 0-1.257-.607 5.538 5.538 0 0 0-1.555-.211c-.621 0-1.175.082-1.661.247-.48.158-.885.375-1.213.65a2.76 2.76 0 0 0-.774.932 2.51 2.51 0 0 0-.272 1.098h2.11c0-.181.031-.351.096-.51.07-.164.176-.301.316-.413a1.53 1.53 0 0 1 .528-.29c.216-.07.468-.105.755-.105.317 0 .595.041.836.123.246.076.454.187.624.334.158.146.278.319.36.518.088.2.132.422.132.668v.642H67.4c-.685 0-1.3.064-1.845.193-.54.129-.994.317-1.363.563a2.676 2.676 0 0 0-.914 1.002c-.205.398-.307.858-.307 1.38 0 .404.079.782.237 1.133.164.346.393.642.686.888a3.22 3.22 0 0 0 1.037.598c.41.14.861.211 1.353.211.305 0 .589-.03.853-.088.263-.059.51-.141.738-.246.228-.1.434-.217.615-.352.188-.14.355-.287.501-.439.03.181.062.357.097.527.04.164.094.305.158.422Zm-2.557-1.512c-.27 0-.504-.032-.704-.096a1.527 1.527 0 0 1-.5-.282 1.146 1.146 0 0 1-.308-.422 1.403 1.403 0 0 1-.106-.544c0-.235.041-.446.123-.633.088-.188.22-.349.396-.484.2-.158.466-.278.8-.36.334-.088.73-.132 1.186-.132h1.354v1.758a1.698 1.698 0 0 1-.326.439c-.14.141-.307.267-.5.378a2.97 2.97 0 0 1-.65.273c-.235.07-.49.105-.765.105Zm11.47-4.799-2.25-3.199h-2.312l3.33 4.685L73.483 298h2.33l2.364-3.322L80.549 298h2.32l-3.445-4.825 3.34-4.685h-2.33l-2.276 3.199Zm26.032 2.373h-2.118c-.035.387-.111.73-.228 1.029a2.22 2.22 0 0 1-.466.747c-.199.205-.44.36-.721.466a2.75 2.75 0 0 1-.967.158c-.304 0-.577-.041-.817-.123a1.938 1.938 0 0 1-.624-.378 2.297 2.297 0 0 1-.457-.545 3.483 3.483 0 0 1-.308-.703 5.648 5.648 0 0 1-.237-1.028 9.75 9.75 0 0 1-.07-1.205v-1.766c0-.346.017-.683.053-1.011.04-.334.1-.647.175-.94.1-.334.226-.636.378-.906.158-.275.355-.498.589-.668.17-.14.363-.249.58-.325.223-.076.472-.114.747-.114.393 0 .73.059 1.011.176.281.111.518.275.712.492.187.217.334.48.439.791.112.305.185.647.22 1.028h2.109a5.937 5.937 0 0 0-.43-1.74 3.948 3.948 0 0 0-.897-1.336 3.898 3.898 0 0 0-1.362-.844c-.527-.199-1.128-.298-1.802-.298-.498 0-.958.067-1.38.202a4.308 4.308 0 0 0-1.142.562 4.549 4.549 0 0 0-.967.958 5.15 5.15 0 0 0-.677 1.239 6.653 6.653 0 0 0-.369 1.31 8.248 8.248 0 0 0-.123 1.441v1.749c0 .522.041 1.023.123 1.503.088.481.217.926.387 1.336.17.416.378.8.624 1.152.252.345.545.641.879.887a4.03 4.03 0 0 0 1.177.616c.446.14.932.211 1.46.211a5.08 5.08 0 0 0 1.757-.29c.533-.2.993-.481 1.38-.844.381-.358.689-.788.923-1.292.234-.51.381-1.075.439-1.697Zm1.837-.905v.185c0 .697.1 1.339.299 1.925.199.586.489 1.095.87 1.529.375.433.838.773 1.389 1.019.551.247 1.175.37 1.872.37.691 0 1.31-.123 1.854-.37a3.928 3.928 0 0 0 1.389-1.019c.375-.434.662-.943.861-1.529.2-.586.299-1.228.299-1.925v-.185c0-.691-.099-1.33-.299-1.916a4.529 4.529 0 0 0-.861-1.538 4.022 4.022 0 0 0-1.397-1.019c-.545-.246-1.166-.37-1.864-.37-.697 0-1.318.124-1.863.37a3.948 3.948 0 0 0-1.38 1.019 4.449 4.449 0 0 0-.87 1.538 5.925 5.925 0 0 0-.299 1.916Zm2.101.185v-.185c0-.416.044-.814.132-1.195.093-.381.237-.715.43-1.002.188-.287.425-.516.712-.686.293-.17.639-.254 1.037-.254.405 0 .75.084 1.038.254.293.17.536.399.729.686.182.287.319.621.413 1.002.094.381.141.779.141 1.195v.185c0 .428-.047.832-.141 1.213a3.073 3.073 0 0 1-.413 1.002 2.118 2.118 0 0 1-.721.685 2.069 2.069 0 0 1-1.028.246c-.404 0-.753-.082-1.046-.246a2.127 2.127 0 0 1-.721-.685 3.094 3.094 0 0 1-.43-1.002 5.376 5.376 0 0 1-.132-1.213Zm9.097 4.658h2.1v-6.785c.094-.158.202-.305.325-.44a2.14 2.14 0 0 1 1.002-.624c.223-.07.463-.105.721-.105.311 0 .586.035.826.105.24.065.446.176.615.334.17.159.299.369.387.633.088.264.132.592.132.985V298h2.101v-5.933c0-.668-.08-1.236-.238-1.705-.158-.474-.381-.864-.668-1.169a2.569 2.569 0 0 0-1.037-.668 4.056 4.056 0 0 0-1.336-.211 3.462 3.462 0 0 0-2.478 1.029 3.802 3.802 0 0 0-.422.501l-.132-1.354h-1.898V298Zm15.029-11.83h-2.109v2.32h-2.303v1.573h2.303v4.676c0 .61.079 1.131.237 1.565.164.433.389.788.677 1.063a2.67 2.67 0 0 0 1.028.624c.404.129.847.194 1.327.194.264 0 .527-.015.791-.044.27-.024.527-.059.773-.106.247-.047.475-.102.686-.167.217-.07.401-.152.554-.246l-.229-1.45-.395.088a9.816 9.816 0 0 1-.492.079 8.09 8.09 0 0 1-.563.07 6.065 6.065 0 0 1-.562.027c-.252 0-.484-.03-.695-.088a1.32 1.32 0 0 1-.545-.299 1.368 1.368 0 0 1-.36-.554 2.773 2.773 0 0 1-.123-.888v-4.544h3.577v-1.573h-3.577v-2.32Zm13.166 2.144c-.656 0-1.257.153-1.802.457a4.366 4.366 0 0 0-1.389 1.257l-.008-.219-.088-1.319h-1.969V298h2.101v-5.871c.111-.281.249-.53.413-.747.164-.217.363-.396.597-.536.217-.147.466-.255.747-.325.282-.071.598-.106.95-.106.31 0 .621.018.931.053.317.035.636.088.958.158l.299-2.074a4.103 4.103 0 0 0-.756-.167 6.682 6.682 0 0 0-.984-.071Zm4.72.176v1.749h2.926v6.021h-2.926V298h7.839v-1.74h-2.794v-7.77h-5.045Zm2.733-2.461c0 .223.053.419.158.589a.875.875 0 0 0 .484.343c.205.064.392.079.562.044a.923.923 0 0 0 .44-.22.94.94 0 0 0 .562-.378.917.917 0 0 0 .132-.677.89.89 0 0 0-.343-.615c-.193-.164-.448-.246-.765-.246-.187 0-.357.029-.509.088a1.045 1.045 0 0 0-.633.606 1.194 1.194 0 0 0-.088.466Zm15.952 7.313v-.185a7.56 7.56 0 0 0-.149-1.529 5.483 5.483 0 0 0-.422-1.31 4.381 4.381 0 0 0-.492-.773 2.823 2.823 0 0 0-.624-.607 3.162 3.162 0 0 0-.932-.457 3.609 3.609 0 0 0-1.125-.167c-.311 0-.601.033-.87.097-.264.059-.507.15-.73.273a2.979 2.979 0 0 0-.878.738V284.5h-2.101V298h1.898l.097-1.037c.106.129.214.249.325.36.117.106.24.205.369.299.252.182.537.319.853.413.316.094.668.141 1.055.141.38 0 .732-.05 1.054-.15.328-.093.624-.228.888-.404.328-.217.609-.489.844-.817.234-.328.422-.695.562-1.099.123-.34.217-.709.281-1.107.065-.399.097-.818.097-1.257Zm-2.1-.185v.185c0 .263-.015.518-.044.764-.03.247-.074.475-.132.686a2.89 2.89 0 0 1-.308.765 1.749 1.749 0 0 1-1.019.808 2.234 2.234 0 0 1-.651.088c-.263 0-.504-.032-.72-.097a2.104 2.104 0 0 1-.563-.281 2.396 2.396 0 0 1-.395-.378 2.577 2.577 0 0 1-.29-.483v-3.938c.07-.152.152-.293.246-.422.099-.134.211-.251.334-.351.17-.147.369-.258.597-.334.229-.082.487-.123.774-.123.234 0 .445.026.633.079.187.053.354.132.5.237.223.153.399.34.528.563.135.217.243.46.325.729.059.223.103.463.132.721.035.252.053.513.053.782ZM177.51 298h1.907v-9.51h-2.109v6.733a2.397 2.397 0 0 1-.299.483 1.977 1.977 0 0 1-.405.369 2.392 2.392 0 0 1-.632.281 3.143 3.143 0 0 1-.818.097c-.293 0-.548-.038-.764-.114a1.137 1.137 0 0 1-.536-.387c-.141-.176-.244-.41-.308-.703a5.319 5.319 0 0 1-.097-1.107v-5.652h-2.1v5.634c0 .715.079 1.33.237 1.846.158.509.381.928.668 1.257.293.328.642.571 1.046.729.41.152.861.229 1.353.229.575 0 1.093-.132 1.556-.396a3.626 3.626 0 0 0 1.178-1.116l.123 1.327Zm8.798-11.83h-2.11v2.32h-2.302v1.573h2.302v4.676c0 .61.079 1.131.238 1.565.164.433.389.788.676 1.063.287.281.63.489 1.029.624.404.129.846.194 1.327.194.263 0 .527-.015.791-.044.269-.024.527-.059.773-.106s.475-.102.686-.167c.217-.07.401-.152.553-.246l-.228-1.45-.396.088a9.459 9.459 0 0 1-.492.079 7.985 7.985 0 0 1-.562.07 6.086 6.086 0 0 1-.563.027 2.61 2.61 0 0 1-.694-.088 1.314 1.314 0 0 1-.545-.299 1.368 1.368 0 0 1-.36-.554 2.773 2.773 0 0 1-.123-.888v-4.544h3.577v-1.573h-3.577v-2.32Zm7.075 2.32v1.749h2.927v6.021h-2.927V298h7.84v-1.74h-2.795v-7.77h-5.045Zm2.733-2.461c0 .223.053.419.158.589a.875.875 0 0 0 .484.343c.205.064.392.079.562.044a.923.923 0 0 0 .44-.22.94.94 0 0 0 .562-.378.917.917 0 0 0 .132-.677.886.886 0 0 0-.343-.615c-.193-.164-.448-.246-.764-.246a1.4 1.4 0 0 0-.51.088 1.058 1.058 0 0 0-.633.606 1.213 1.213 0 0 0-.088.466Zm7.207 7.128v.185c0 .697.1 1.339.299 1.925.199.586.489 1.095.87 1.529.375.433.838.773 1.389 1.019.551.247 1.175.37 1.872.37.691 0 1.309-.123 1.854-.37a3.928 3.928 0 0 0 1.389-1.019c.375-.434.662-.943.861-1.529.2-.586.299-1.228.299-1.925v-.185c0-.691-.099-1.33-.299-1.916a4.529 4.529 0 0 0-.861-1.538 4.022 4.022 0 0 0-1.397-1.019c-.545-.246-1.166-.37-1.864-.37-.697 0-1.318.124-1.863.37a3.948 3.948 0 0 0-1.38 1.019 4.449 4.449 0 0 0-.87 1.538 5.925 5.925 0 0 0-.299 1.916Zm2.101.185v-.185c0-.416.044-.814.132-1.195.093-.381.237-.715.43-1.002.188-.287.425-.516.712-.686.293-.17.639-.254 1.037-.254.405 0 .75.084 1.037.254.293.17.537.399.73.686.182.287.319.621.413 1.002.094.381.141.779.141 1.195v.185c0 .428-.047.832-.141 1.213a3.095 3.095 0 0 1-.413 1.002 2.127 2.127 0 0 1-.721.685 2.069 2.069 0 0 1-1.028.246c-.404 0-.753-.082-1.046-.246a2.127 2.127 0 0 1-.721-.685 3.094 3.094 0 0 1-.43-1.002 5.376 5.376 0 0 1-.132-1.213Zm9.097 4.658h2.1v-6.785c.094-.158.202-.305.325-.44a2.14 2.14 0 0 1 1.002-.624c.223-.07.463-.105.721-.105.31 0 .586.035.826.105.24.065.445.176.615.334.17.159.299.369.387.633.088.264.132.592.132.985V298h2.1v-5.933c0-.668-.079-1.236-.237-1.705-.158-.474-.381-.864-.668-1.169a2.569 2.569 0 0 0-1.037-.668 4.056 4.056 0 0 0-1.336-.211 3.468 3.468 0 0 0-1.977.607 3.802 3.802 0 0 0-.923.923l-.132-1.354h-1.898V298ZM331.571 298v-12.797h-2.127l-.017 8.772-4.131-8.772h-2.145V298h2.136l.009-8.807 4.157 8.807h2.118Zm2.215-4.843v.185c0 .697.1 1.339.299 1.925.199.586.489 1.095.87 1.529.375.433.838.773 1.389 1.019.551.247 1.175.37 1.872.37.691 0 1.309-.123 1.854-.37a3.928 3.928 0 0 0 1.389-1.019c.375-.434.662-.943.861-1.529.2-.586.299-1.228.299-1.925v-.185c0-.691-.099-1.33-.299-1.916a4.529 4.529 0 0 0-.861-1.538 4.022 4.022 0 0 0-1.397-1.019c-.545-.246-1.166-.37-1.864-.37-.697 0-1.318.124-1.863.37a3.948 3.948 0 0 0-1.38 1.019 4.449 4.449 0 0 0-.87 1.538 5.925 5.925 0 0 0-.299 1.916Zm2.101.185v-.185c0-.416.044-.814.132-1.195.093-.381.237-.715.43-1.002.188-.287.425-.516.712-.686.293-.17.639-.254 1.037-.254.405 0 .75.084 1.037.254.293.17.536.399.73.686.181.287.319.621.413 1.002.094.381.141.779.141 1.195v.185c0 .428-.047.832-.141 1.213a3.095 3.095 0 0 1-.413 1.002 2.127 2.127 0 0 1-.721.685 2.071 2.071 0 0 1-1.028.246c-.404 0-.753-.082-1.046-.246a2.127 2.127 0 0 1-.721-.685 3.094 3.094 0 0 1-.43-1.002 5.376 5.376 0 0 1-.132-1.213Zm9.58-4.852v1.749h2.927v6.021h-2.927V298h7.84v-1.74h-2.795v-7.77h-5.045Zm2.733-2.461c0 .223.053.419.158.589a.875.875 0 0 0 .484.343c.205.064.392.079.562.044a.923.923 0 0 0 .44-.22.94.94 0 0 0 .562-.378.917.917 0 0 0 .132-.677.886.886 0 0 0-.343-.615c-.193-.164-.448-.246-.764-.246a1.4 1.4 0 0 0-.51.088 1.058 1.058 0 0 0-.633.606 1.194 1.194 0 0 0-.088.466Zm13.808 9.396a.861.861 0 0 1-.106.422 1.07 1.07 0 0 1-.298.342 1.868 1.868 0 0 1-.66.308 3.515 3.515 0 0 1-.949.114c-.269 0-.536-.026-.8-.079a2.2 2.2 0 0 1-.703-.281 1.657 1.657 0 0 1-.527-.483 1.507 1.507 0 0 1-.229-.747h-2.039c0 .392.094.779.282 1.16.187.381.462.717.826 1.01.357.299.799.539 1.327.721.533.182 1.142.273 1.828.273.615 0 1.175-.071 1.679-.211a4.284 4.284 0 0 0 1.3-.589c.358-.252.633-.554.827-.906.199-.351.298-.738.298-1.16 0-.433-.093-.808-.281-1.125a2.647 2.647 0 0 0-.791-.826 5.01 5.01 0 0 0-1.23-.562 12.754 12.754 0 0 0-1.591-.387 7.645 7.645 0 0 1-1.037-.237 2.485 2.485 0 0 1-.633-.29.879.879 0 0 1-.343-.343 1.031 1.031 0 0 1-.096-.448.93.93 0 0 1 .114-.449 1.05 1.05 0 0 1 .343-.378c.152-.117.345-.208.58-.272.24-.07.518-.106.835-.106.345 0 .647.047.905.141.258.088.469.208.633.36.14.129.246.276.316.44.076.158.114.325.114.501h2.101c0-.428-.094-.826-.281-1.195a2.826 2.826 0 0 0-.8-.958 3.967 3.967 0 0 0-1.283-.633 5.693 5.693 0 0 0-1.705-.238c-.592 0-1.131.077-1.618.229-.48.152-.89.36-1.23.624a2.84 2.84 0 0 0-.8.923 2.325 2.325 0 0 0-.272 1.098c0 .405.09.759.272 1.064.182.305.434.568.756.791a4.87 4.87 0 0 0 1.169.598c.457.164.961.301 1.512.413.439.082.805.17 1.098.263.293.094.531.194.712.299.17.117.29.24.361.369a.851.851 0 0 1 .114.44Zm9.035 2.751c.926 0 1.714-.182 2.364-.545.656-.363 1.143-.774 1.459-1.231l-1.125-1.089a2.93 2.93 0 0 1-1.116.87 3.572 3.572 0 0 1-1.459.298c-.381 0-.732-.064-1.055-.193a2.478 2.478 0 0 1-.826-.545 2.56 2.56 0 0 1-.554-.756 3.778 3.778 0 0 1-.298-1.046v-.043h6.591v-.906c0-.679-.09-1.306-.272-1.881a4.183 4.183 0 0 0-.809-1.485 3.663 3.663 0 0 0-1.327-.958c-.527-.234-1.134-.352-1.819-.352a4.364 4.364 0 0 0-3.164 1.336c-.41.428-.733.944-.967 1.547-.234.604-.352 1.278-.352 2.022v.36c0 .65.112 1.257.334 1.819.229.557.551 1.04.967 1.451.416.416.914.741 1.494.975a5.152 5.152 0 0 0 1.934.352Zm-.255-8.156c.352 0 .659.061.923.184.269.117.492.275.668.475.182.205.322.445.422.72.099.27.149.542.149.818v.14h-4.473c.064-.363.164-.688.298-.975.135-.287.302-.533.501-.738.2-.2.425-.352.677-.457.258-.112.536-.167.835-.167Zm17.288 7.98h3.235c.585 0 1.133-.07 1.643-.211a5.262 5.262 0 0 0 1.406-.606 4.99 4.99 0 0 0 1.02-.871c.31-.339.574-.717.791-1.133a5.9 5.9 0 0 0 .51-1.415 7.188 7.188 0 0 0 .184-1.653v-1.002a7.24 7.24 0 0 0-.193-1.705 6.346 6.346 0 0 0-.545-1.467 5.04 5.04 0 0 0-.853-1.161 4.536 4.536 0 0 0-1.151-.861 5.467 5.467 0 0 0-1.327-.519 6.09 6.09 0 0 0-1.556-.193h-3.164V298Zm2.136-11.074h1.028c.34.006.656.047.949.123.293.07.557.173.791.307.323.182.601.419.835.712.235.287.422.61.563.967.111.293.196.612.255.958.058.346.088.712.088 1.099v1.019c0 .393-.03.762-.088 1.108a5.157 5.157 0 0 1-.255.958 3.602 3.602 0 0 1-.501.923 2.93 2.93 0 0 1-.686.659c-.252.17-.536.302-.852.395a3.765 3.765 0 0 1-1.028.132h-1.099v-9.36Zm9.308 1.564v1.749h2.926v6.021h-2.926V298h7.839v-1.74h-2.795v-7.77h-5.044Zm2.733-2.461c0 .223.053.419.158.589a.872.872 0 0 0 .484.343c.205.064.392.079.562.044a.92.92 0 0 0 .439-.22.94.94 0 0 0 .563-.378.917.917 0 0 0 .132-.677.89.89 0 0 0-.343-.615c-.193-.164-.448-.246-.765-.246-.187 0-.357.029-.509.088a1.062 1.062 0 0 0-.378.229 1.033 1.033 0 0 0-.255.377 1.194 1.194 0 0 0-.088.466Zm13.808 9.396a.872.872 0 0 1-.106.422 1.063 1.063 0 0 1-.299.342 1.862 1.862 0 0 1-.659.308 3.515 3.515 0 0 1-.949.114c-.27 0-.536-.026-.8-.079a2.19 2.19 0 0 1-.703-.281 1.657 1.657 0 0 1-.527-.483 1.507 1.507 0 0 1-.229-.747h-2.039c0 .392.094.779.281 1.16.188.381.463.717.826 1.01.358.299.8.539 1.328.721.533.182 1.142.273 1.828.273.615 0 1.175-.071 1.678-.211a4.29 4.29 0 0 0 1.301-.589 2.68 2.68 0 0 0 .826-.906c.2-.351.299-.738.299-1.16 0-.433-.094-.808-.281-1.125a2.658 2.658 0 0 0-.791-.826c-.34-.222-.75-.41-1.231-.562-.48-.153-1.01-.282-1.59-.387a7.645 7.645 0 0 1-1.037-.237 2.485 2.485 0 0 1-.633-.29.872.872 0 0 1-.343-.343 1.018 1.018 0 0 1-.097-.448.92.92 0 0 1 .115-.449c.076-.146.19-.272.342-.378a1.67 1.67 0 0 1 .58-.272c.241-.07.519-.106.835-.106.346 0 .648.047.906.141.257.088.468.208.632.36.141.129.247.276.317.44.076.158.114.325.114.501h2.101c0-.428-.094-.826-.282-1.195a2.823 2.823 0 0 0-.799-.958 3.972 3.972 0 0 0-1.284-.633 5.683 5.683 0 0 0-1.705-.238c-.591 0-1.131.077-1.617.229-.48.152-.89.36-1.23.624a2.83 2.83 0 0 0-.8.923 2.326 2.326 0 0 0-.273 1.098c0 .405.091.759.273 1.064.182.305.433.568.756.791a4.85 4.85 0 0 0 1.169.598c.457.164.961.301 1.511.413.44.082.806.17 1.099.263.293.094.53.194.712.299.17.117.29.24.36.369a.852.852 0 0 1 .115.44Zm8.815-9.255h-2.109v2.32h-2.303v1.573h2.303v4.676c0 .61.079 1.131.237 1.565.164.433.39.788.677 1.063.287.281.63.489 1.028.624.404.129.847.194 1.327.194.264 0 .527-.015.791-.044.27-.024.527-.059.774-.106.246-.047.474-.102.685-.167.217-.07.402-.152.554-.246l-.229-1.45-.395.088a9.816 9.816 0 0 1-.492.079 8.09 8.09 0 0 1-.563.07 6.065 6.065 0 0 1-.562.027c-.252 0-.484-.03-.695-.088a1.32 1.32 0 0 1-.545-.299 1.368 1.368 0 0 1-.36-.554 2.773 2.773 0 0 1-.123-.888v-4.544h3.577v-1.573h-3.577v-2.32Zm13.166 2.144c-.656 0-1.257.153-1.802.457a4.352 4.352 0 0 0-1.388 1.257l-.009-.219-.088-1.319h-1.969V298h2.101v-5.871c.111-.281.249-.53.413-.747.164-.217.363-.396.597-.536.217-.147.466-.255.748-.325a3.88 3.88 0 0 1 .949-.106c.31 0 .621.018.931.053.317.035.636.088.958.158l.299-2.074a4.084 4.084 0 0 0-.756-.167 6.682 6.682 0 0 0-.984-.071Zm4.72.176v1.749h2.926v6.021h-2.926V298h7.84v-1.74h-2.795v-7.77h-5.045Zm2.733-2.461c0 .223.053.419.158.589a.875.875 0 0 0 .484.343c.205.064.392.079.562.044a.923.923 0 0 0 .44-.22.94.94 0 0 0 .562-.378.917.917 0 0 0 .132-.677.89.89 0 0 0-.343-.615c-.193-.164-.448-.246-.764-.246a1.4 1.4 0 0 0-.51.088 1.058 1.058 0 0 0-.633.606 1.194 1.194 0 0 0-.088.466Zm15.952 7.313v-.185a7.56 7.56 0 0 0-.149-1.529 5.483 5.483 0 0 0-.422-1.31 4.381 4.381 0 0 0-.492-.773 2.823 2.823 0 0 0-.624-.607 3.162 3.162 0 0 0-.932-.457 3.609 3.609 0 0 0-1.125-.167c-.31 0-.6.033-.87.097-.264.059-.507.15-.729.273a2.89 2.89 0 0 0-.879.738V284.5h-2.101V298h1.898l.097-1.037c.106.129.214.249.325.36.118.106.241.205.369.299.252.182.537.319.853.413.316.094.668.141 1.055.141.381 0 .732-.05 1.054-.15.329-.093.624-.228.888-.404.328-.217.609-.489.844-.817.234-.328.422-.695.562-1.099.123-.34.217-.709.282-1.107.064-.399.096-.818.096-1.257Zm-2.1-.185v.185c0 .263-.015.518-.044.764-.03.247-.074.475-.132.686-.07.281-.173.536-.308.765a1.749 1.749 0 0 1-1.019.808c-.194.059-.41.088-.651.088-.263 0-.504-.032-.72-.097a2.104 2.104 0 0 1-.563-.281 2.396 2.396 0 0 1-.395-.378 2.577 2.577 0 0 1-.29-.483v-3.938c.07-.152.152-.293.246-.422.099-.134.211-.251.334-.351.17-.147.369-.258.597-.334.229-.082.487-.123.774-.123.234 0 .445.026.633.079.187.053.354.132.501.237.222.153.398.34.527.563.135.217.243.46.325.729.059.223.103.463.132.721.035.252.053.513.053.782ZM470.131 298h1.907v-9.51h-2.109v6.733a1.998 1.998 0 0 1-.703.852 2.414 2.414 0 0 1-.633.281c-.24.065-.513.097-.818.097a2.31 2.31 0 0 1-.764-.114 1.137 1.137 0 0 1-.536-.387c-.141-.176-.244-.41-.308-.703a5.388 5.388 0 0 1-.097-1.107v-5.652h-2.1v5.634c0 .715.079 1.33.237 1.846.158.509.381.928.668 1.257.293.328.642.571 1.046.729.41.152.861.229 1.353.229.575 0 1.093-.132 1.556-.396a3.616 3.616 0 0 0 1.178-1.116l.123 1.327Zm8.798-11.83h-2.11v2.32h-2.302v1.573h2.302v4.676c0 .61.079 1.131.238 1.565.164.433.389.788.676 1.063.288.281.63.489 1.029.624.404.129.846.194 1.327.194.264 0 .527-.015.791-.044.269-.024.527-.059.773-.106s.475-.102.686-.167c.217-.07.401-.152.554-.246l-.229-1.45-.395.088a9.68 9.68 0 0 1-.493.079 7.985 7.985 0 0 1-.562.07 6.07 6.07 0 0 1-.563.027 2.61 2.61 0 0 1-.694-.088 1.314 1.314 0 0 1-.545-.299 1.368 1.368 0 0 1-.36-.554 2.773 2.773 0 0 1-.123-.888v-4.544h3.577v-1.573h-3.577v-2.32Zm7.075 2.32v1.749h2.927v6.021h-2.927V298h7.84v-1.74h-2.795v-7.77h-5.045Zm2.733-2.461c0 .223.053.419.159.589a.87.87 0 0 0 .483.343c.205.064.392.079.562.044a.923.923 0 0 0 .44-.22.94.94 0 0 0 .562-.378.917.917 0 0 0 .132-.677.886.886 0 0 0-.343-.615c-.193-.164-.448-.246-.764-.246a1.4 1.4 0 0 0-.51.088 1.058 1.058 0 0 0-.633.606 1.213 1.213 0 0 0-.088.466Zm7.207 7.128v.185c0 .697.1 1.339.299 1.925.199.586.489 1.095.87 1.529.375.433.838.773 1.389 1.019.551.247 1.175.37 1.872.37.691 0 1.31-.123 1.855-.37a3.933 3.933 0 0 0 1.388-1.019c.375-.434.662-.943.862-1.529a5.955 5.955 0 0 0 .298-1.925v-.185c0-.691-.099-1.33-.298-1.916a4.548 4.548 0 0 0-.862-1.538 4.013 4.013 0 0 0-1.397-1.019c-.545-.246-1.166-.37-1.864-.37-.697 0-1.318.124-1.863.37a3.948 3.948 0 0 0-1.38 1.019 4.449 4.449 0 0 0-.87 1.538 5.925 5.925 0 0 0-.299 1.916Zm2.101.185v-.185c0-.416.044-.814.132-1.195.094-.381.237-.715.43-1.002.188-.287.425-.516.712-.686.293-.17.639-.254 1.037-.254.405 0 .75.084 1.038.254.293.17.536.399.729.686.182.287.319.621.413 1.002.094.381.141.779.141 1.195v.185c0 .428-.047.832-.141 1.213a3.073 3.073 0 0 1-.413 1.002 2.118 2.118 0 0 1-.721.685 2.069 2.069 0 0 1-1.028.246c-.404 0-.753-.082-1.046-.246a2.127 2.127 0 0 1-.721-.685 3.116 3.116 0 0 1-.43-1.002 5.376 5.376 0 0 1-.132-1.213Zm9.097 4.658h2.1v-6.785c.094-.158.202-.305.325-.44a2.14 2.14 0 0 1 1.002-.624c.223-.07.463-.105.721-.105.311 0 .586.035.826.105.24.065.446.176.615.334.17.159.299.369.387.633.088.264.132.592.132.985V298h2.101v-5.933c0-.668-.08-1.236-.238-1.705-.158-.474-.381-.864-.668-1.169a2.569 2.569 0 0 0-1.037-.668 4.056 4.056 0 0 0-1.336-.211 3.462 3.462 0 0 0-2.478 1.029 3.802 3.802 0 0 0-.422.501l-.132-1.354h-1.898V298Z" fill="#202124"/></svg>